<svg xml:space="preserve" viewBox="0 0 256 80" height="80px" width="256px" y="0px" x="0px" xmlns:xlink="http://www.w3.org/1999/xlink" xmlns="http://www.w3.org/2000/svg" id="Layer_1" version="1.1">
<g>
	<path d="M39.335,0c0.196,0.374,0.374,0.754,0.548,1.139c0.484,0.015,0.967,0.02,1.451,0.024
		c-0.284,0.352-0.57,0.704-0.853,1.057c0.294,0.385,0.589,0.771,0.882,1.158c-0.502,0.007-1.002,0.013-1.501,0.02
		c-0.168,0.339-0.335,0.678-0.503,1.018c-0.195-0.339-0.388-0.681-0.58-1.022c-0.443-0.004-0.888-0.009-1.333-0.016
		c0.242-0.363,0.482-0.723,0.727-1.084c-0.229-0.376-0.465-0.75-0.698-1.121c0.428-0.009,0.855-0.013,1.286-0.02
		C38.943,0.765,39.135,0.38,39.335,0z" fill="#2E3192"></path>
	<path d="M32.734,1.018c0.274,0.322,0.52,0.674,0.841,0.958c0.472-0.057,0.933-0.193,1.397-0.301
		c-0.195,0.421-0.393,0.841-0.596,1.258c0.363,0.309,0.728,0.614,1.095,0.918c-0.467,0.108-0.932,0.216-1.398,0.318
		c-0.119,0.381-0.235,0.762-0.355,1.145c-0.255-0.292-0.507-0.585-0.757-0.877c-0.433,0.097-0.862,0.194-1.292,0.29
		c0.16-0.411,0.317-0.819,0.479-1.23c-0.332-0.305-0.665-0.609-0.993-0.916c0.434-0.112,0.872-0.218,1.312-0.317
		C32.555,1.848,32.644,1.433,32.734,1.018z" fill="#2E3192"></path>
	<path d="M46.038,1.022c0.105,0.411,0.2,0.823,0.293,1.236c0.426,0.1,0.85,0.203,1.274,0.315
		c-0.315,0.312-0.63,0.622-0.945,0.932c0.155,0.408,0.309,0.814,0.467,1.223c-0.433-0.1-0.862-0.199-1.295-0.296
		c-0.248,0.296-0.495,0.594-0.741,0.89c-0.127-0.383-0.25-0.767-0.373-1.152c-0.472-0.104-0.938-0.22-1.403-0.346
		c0.36-0.302,0.823-0.529,1.059-0.949c-0.143-0.417-0.365-0.799-0.558-1.193c0.476,0.106,0.952,0.214,1.426,0.32
		C45.507,1.677,45.771,1.349,46.038,1.022z" fill="#2E3192"></path>
	<path d="M26.901,3.801c0.352,0.25,0.705,0.506,1.055,0.763c0.419-0.225,0.841-0.437,1.268-0.64
		c-0.083,0.451-0.175,0.901-0.266,1.353c0.446,0.203,0.889,0.413,1.329,0.625c-0.454,0.218-0.903,0.442-1.354,0.661
		c-0.002,0.399-0.002,0.799,0,1.199c-0.317-0.231-0.636-0.46-0.951-0.694c-0.398,0.199-0.795,0.396-1.195,0.592
		c0.054-0.433,0.108-0.862,0.158-1.294c-0.394-0.224-0.784-0.451-1.172-0.677c0.398-0.216,0.799-0.424,1.204-0.629
		C26.954,4.641,26.926,4.222,26.901,3.801z" fill="#2E3192"></path>
	<path d="M50.848,4.573c0.341-0.26,0.685-0.517,1.028-0.776c-0.022,0.421-0.038,0.844-0.047,1.266
		c0.4,0.209,0.797,0.423,1.202,0.631c-0.398,0.225-0.791,0.451-1.185,0.681c0.054,0.432,0.11,0.864,0.174,1.298
		c-0.4-0.203-0.798-0.406-1.193-0.609c-0.315,0.229-0.63,0.458-0.944,0.687c-0.011-0.402-0.031-0.804-0.056-1.205
		c-0.429-0.208-0.85-0.426-1.261-0.664c0.424-0.209,0.852-0.411,1.282-0.605c-0.102-0.449-0.198-0.901-0.286-1.355
		C50,4.121,50.422,4.348,50.848,4.573z" fill="#2E3192"></path>
	<path d="M23.292,6.854c0.198,0.38,0.391,0.763,0.581,1.147c0.483,0.002,0.967,0.005,1.452,0.011
		c-0.29,0.365-0.582,0.728-0.873,1.089c0.291,0.37,0.576,0.746,0.852,1.128c-0.48,0.004-0.958,0.004-1.435,0.004
		c-0.184,0.35-0.37,0.7-0.558,1.05c-0.193-0.346-0.381-0.693-0.562-1.046c-0.44-0.004-0.88-0.007-1.32-0.011
		c0.237-0.361,0.476-0.722,0.71-1.084c-0.239-0.376-0.479-0.754-0.715-1.135c0.444-0.002,0.885-0.004,1.329-0.007
		C22.927,7.619,23.109,7.237,23.292,6.854z" fill="#2E3192"></path>
	<path d="M54.93,8.004c0.172-0.378,0.359-0.754,0.623-1.076c0.163,0.358,0.321,0.719,0.483,1.078
		c0.445,0,0.887-0.002,1.335,0c-0.239,0.384-0.478,0.767-0.715,1.152c0.235,0.356,0.47,0.711,0.706,1.067
		c-0.434,0.006-0.871,0.009-1.306,0.013c-0.185,0.35-0.375,0.695-0.568,1.043c-0.187-0.35-0.376-0.701-0.564-1.048
		c-0.483,0-0.965,0-1.445,0c0.285-0.378,0.573-0.756,0.861-1.132c-0.291-0.37-0.586-0.732-0.882-1.096
		C53.948,8.004,54.439,8.006,54.93,8.004z" fill="#2E3192"></path>
	<path d="M27.661,11.719c0.27-0.333,0.544-0.661,0.819-0.988c0.093,0.417,0.186,0.834,0.279,1.251
		c0.432,0.098,0.864,0.202,1.296,0.303c-0.327,0.313-0.647,0.633-0.967,0.95c0.15,0.405,0.304,0.809,0.456,1.213
		c-0.424-0.104-0.848-0.201-1.274-0.301c-0.263,0.299-0.524,0.597-0.792,0.891c-0.106-0.382-0.215-0.765-0.32-1.148
		c-0.476-0.105-0.947-0.22-1.42-0.333c0.368-0.3,0.741-0.598,1.114-0.893c-0.204-0.421-0.404-0.844-0.602-1.268
		C26.718,11.509,27.189,11.618,27.661,11.719z" fill="#2E3192"></path>
	<path d="M50.381,10.729c0.282,0.287,0.568,0.577,0.858,0.861c0.411-0.125,0.823-0.253,1.236-0.378
		c-0.131,0.413-0.259,0.824-0.393,1.234c0.331,0.307,0.665,0.612,0.989,0.928c-0.419,0.121-0.836,0.237-1.256,0.352
		c-0.073,0.419-0.147,0.838-0.225,1.257c-0.276-0.298-0.544-0.603-0.802-0.918c-0.481,0.11-0.958,0.24-1.436,0.369
		c0.175-0.428,0.355-0.854,0.53-1.282c-0.392-0.274-0.771-0.558-1.148-0.847c0.457-0.134,0.916-0.264,1.38-0.383
		C50.205,11.527,50.293,11.127,50.381,10.729z" fill="#2E3192"></path>
	<path d="M44.618,12.27c0.261,0.304,0.52,0.611,0.782,0.918c0.43-0.097,0.86-0.194,1.292-0.287
		c-0.154,0.399-0.308,0.797-0.465,1.197c0.322,0.32,0.645,0.642,0.966,0.964c-0.433,0.101-0.863,0.203-1.292,0.298
		c-0.093,0.419-0.187,0.84-0.28,1.259c-0.269-0.335-0.538-0.669-0.809-1.003c-0.474,0.11-0.947,0.217-1.418,0.329
		c0.211-0.428,0.408-0.864,0.563-1.316c-0.365-0.272-0.718-0.56-1.063-0.854c0.472-0.114,0.947-0.222,1.423-0.326
		C44.418,13.056,44.518,12.663,44.618,12.27z" fill="#2E3192"></path>
	<path d="M33.594,13.298c0.288-0.322,0.579-0.64,0.871-0.958c0.067,0.424,0.136,0.847,0.207,1.271
		c0.419,0.117,0.839,0.236,1.258,0.359c-0.331,0.307-0.667,0.607-1.003,0.903c0.132,0.408,0.264,0.819,0.395,1.227
		c-0.421-0.11-0.841-0.229-1.256-0.353c-0.275,0.288-0.552,0.575-0.831,0.86c-0.086-0.391-0.171-0.782-0.256-1.173
		c-0.468-0.132-0.937-0.27-1.406-0.406c0.387-0.285,0.776-0.568,1.157-0.865c-0.176-0.427-0.358-0.855-0.538-1.283
		C32.66,13.02,33.128,13.156,33.594,13.298z" fill="#2E3192"></path>
	<path d="M39.458,13.007c0.195,0.344,0.385,0.693,0.573,1.043c0.439,0.004,0.877,0.006,1.318,0.013
		c-0.241,0.359-0.483,0.72-0.727,1.077c0.244,0.376,0.488,0.754,0.724,1.137c-0.437,0.007-0.875,0.008-1.312,0.013
		c-0.188,0.374-0.378,0.748-0.575,1.117c-0.181-0.367-0.361-0.737-0.54-1.104c-0.493-0.016-0.985-0.022-1.478-0.037
		c0.287-0.361,0.581-0.713,0.879-1.065c-0.287-0.38-0.577-0.758-0.866-1.139c0.484-0.005,0.97-0.007,1.453-0.011
		C39.09,13.7,39.271,13.352,39.458,13.007z" fill="#2E3192"></path>
	<path d="M18.668,20.603c1.742-1.545,4.259-1.88,6.489-1.495c2.49,0.413,4.643,1.987,6.188,3.933
		c1.142,1.406,1.579,3.288,1.262,5.065c-1.041-2.721-2.699-5.38-5.303-6.84c-1.79-1.024-3.944-1.226-5.94-0.814
		c0.723,0.739,1.482,1.649,1.407,2.751c-0.029,0.667-0.519,1.21-1.077,1.525c-0.865,0.556-2.074,0.789-2.954,0.127
		C17.406,23.865,17.425,21.666,18.668,20.603z" fill="#2E3192"></path>
	<path d="M53.017,19.23c2.354-0.57,5.076-0.293,6.988,1.297c1.234,1.011,1.371,3.109,0.166,4.196
		c-1.276,1.126-3.467,0.33-4.125-1.117c-0.367-1.23,0.54-2.327,1.33-3.162c-1.926-0.378-3.999-0.229-5.743,0.724
		c-2.692,1.421-4.447,4.136-5.465,6.93c-0.405-1.783,0.135-3.688,1.262-5.104C48.873,21.24,50.77,19.757,53.017,19.23z" fill="#2E3192"></path>
	<path d="M37.065,21.084c0.671-0.592,1.442-1.174,2.343-1.332c1.186,0.274,2.17,1.115,2.947,2.021
		c1.368,1.651,2.146,3.7,2.654,5.761c0.8,3.176,1.226,6.448,1.26,9.724c-0.025,1.489-0.118,2.993-0.515,4.437
		c-0.23,0.748-0.555,1.518-1.176,2.025c-0.688,0.558-1.849,0.562-2.423-0.167c-0.48-0.611-0.627-1.404-0.716-2.159
		c-0.205-2.685,0.257-5.358,0.701-8c0.523-2.604,0.653-5.324,0.138-7.941c-0.374-1.851-1.32-3.65-2.897-4.743
		c-1.963,1.4-2.89,3.803-3.108,6.13c-0.651,4.999,1.623,9.846,1.036,14.844c-0.124,0.793-0.327,1.689-1.031,2.176
		c-0.806,0.525-1.949,0.211-2.489-0.555c-0.859-1.187-1.034-2.701-1.191-4.114c-0.251-3.847,0.225-7.717,1.112-11.458
		C34.301,25.309,35.239,22.854,37.065,21.084z" fill="#2E3192"></path>
	<path d="M23.589,21.618c2.758,1.323,4.864,3.821,5.958,6.653c0.753,1.883,0.928,3.922,1.154,5.919
		c0.203,1.703,0.212,3.42,0.15,5.133c-0.145,1.344-0.329,2.822-1.284,3.861c-0.853,0.94-2.317,0.855-3.403,0.413
		c-0.981-0.387-1.533-1.422-1.602-2.437c-0.229-2.815,1.037-5.454,1.236-8.229c0.205-2.8,0.23-5.672-0.517-8.401
		C24.998,23.425,24.424,22.404,23.589,21.618z" fill="#2E3192"></path>
	<path d="M49.391,27.814c1.15-2.638,3.17-4.999,5.822-6.196c-1.022,0.83-1.566,2.081-1.861,3.336
		c-0.665,2.831-0.624,5.776-0.33,8.652c0.322,2.721,1.604,5.394,1.057,8.165c-0.344,1.778-2.518,2.52-4.086,1.97
		c-1.119-0.473-1.629-1.706-1.863-2.821c-0.408-1.99-0.286-4.041-0.15-6.055C48.242,32.483,48.399,30.029,49.391,27.814z" fill="#2E3192"></path>
	<path d="M9.94,37.354c-0.566-1.774,0.571-4.006,2.473-4.324c1.679-0.264,3.634,0.3,4.626,1.752
		c1.304,2.07,1.595,4.64,1.305,7.03c-0.238,2.044-1.316,3.838-2.214,5.646c-1.681,3.336-3.609,6.545-5.204,9.925
		c-1.188,2.993-1.85,6.27-1.537,9.493c0.137,1.323,0.614,2.576,1.27,3.726c-2.116-1.89-2.985-4.881-2.79-7.654
		c0.281-3.8,1.919-7.34,3.933-10.519c1.734-2.706,3.253-5.573,4.29-8.623c0.808-2.372,0.853-5.083-0.322-7.34
		c-0.406-0.742-1.027-1.515-1.935-1.59c-0.712-0.013-1.298,0.54-1.529,1.18c-0.398,1.134-0.424,2.398-0.031,3.539
		C11.302,39.106,10.317,38.425,9.94,37.354z" fill="#2E3192"></path>
	<path d="M62.97,33.8c1.154-0.742,2.617-1.046,3.955-0.692c1.729,0.493,2.688,2.587,2.15,4.253
		c-0.374,1.071-1.359,1.752-2.336,2.227c0.422-1.181,0.381-2.509-0.082-3.668c-0.305-0.785-1.261-1.31-2.053-0.893
		c-0.947,0.484-1.455,1.508-1.789,2.473c-0.618,1.742-0.604,3.658-0.133,5.437c0.602,2.294,1.687,4.428,2.76,6.532
		c1.517,2.683,3.355,5.204,4.446,8.107c0.957,2.557,1.606,5.341,1.123,8.072c-0.363,1.854-1.204,3.696-2.649,4.954
		c1.444-2.338,1.565-5.208,1.167-7.857c-0.355-2.36-0.986-4.706-2.129-6.815c-1.951-3.74-4.054-7.401-5.868-11.208
		c-1.187-2.562-1.245-5.576-0.371-8.238C61.538,35.472,62.02,34.392,62.97,33.8z" fill="#2E3192"></path>
	<path d="M2.519,43.381c0.454-1.709,2.274-2.945,4.042-2.598c1.135,0.176,1.941,1.161,2.271,2.207
		c0.539,1.612,0.493,3.367,0.19,5.022C8.047,52.211,7.57,56.508,7.19,60.795c-0.067,1.438-0.273,2.903,0.062,4.328
		c0.403,1.846,1.102,3.631,2.053,5.266c1.367,2.378,3.594,4.511,6.425,4.85c-3.572,0.335-7.052-1.835-8.743-4.925
		c-1.39-2.585-2.464-5.32-3.689-7.985C2.528,60.615,1.504,58.973,0,57.808c0.944-0.177,1.953,0.003,2.751,0.548
		c1.197,0.774,2.014,2.009,2.606,3.282c0.239-3.173,0.455-6.35,0.836-9.508c0.238-2.103,0.985-4.119,1.104-6.239
		c0.021-0.761-0.141-1.647-0.85-2.073c-0.78-0.435-1.828-0.273-2.485,0.322c-0.86,0.734-1.301,1.832-1.493,2.924
		C2.543,45.837,2.457,44.606,2.519,43.381z" fill="#2E3192"></path>
	<path d="M70.315,42.665c0.4-1.056,1.399-1.94,2.572-1.919c1.64-0.14,3.191,1.086,3.615,2.635
		c0.065,1.226-0.025,2.453,0.052,3.678c-0.211-1.182-0.724-2.388-1.733-3.103c-0.854-0.603-2.261-0.531-2.813,0.444
		c-0.573,1.27-0.134,2.688,0.085,3.986c1.097,4.33,1.179,8.822,1.571,13.251c0.893-2.01,2.688-4.197,5.14-3.866
		c-0.11,0.387-0.446,0.617-0.713,0.887c-0.945,0.913-1.583,2.08-2.164,3.241c-1.319,2.793-2.426,5.689-3.892,8.411
		c-1.688,3.089-5.169,5.269-8.74,4.924c3.01-0.354,5.3-2.723,6.667-5.277c1.257-2.403,2.242-5.104,1.948-7.855
		c-0.272-4.225-0.767-8.44-1.579-12.597C69.766,47.284,69.442,44.853,70.315,42.665z" fill="#2E3192"></path>
	<path d="M26.329,45.396c1.445-0.868,3.531,0.283,3.475,1.995c0.143,1.71-1.869,2.967-3.367,2.171
		C24.769,48.851,24.704,46.197,26.329,45.396z" fill="#2E3192"></path>
	<path d="M34.5,45.278c1.513-0.688,3.44,0.679,3.179,2.352c0.023,1.848-2.458,2.842-3.792,1.638
		C32.508,48.25,32.878,45.837,34.5,45.278z" fill="#2E3192"></path>
	<path d="M42.704,45.229c1.512-0.576,3.296,0.768,3.089,2.388c0.009,1.819-2.391,2.845-3.754,1.697
		C40.569,48.293,40.984,45.732,42.704,45.229z" fill="#2E3192"></path>
	<path d="M50.482,45.281c1.284-0.564,2.952,0.287,3.172,1.687c0.368,1.421-0.894,2.95-2.366,2.815
		c-1.556,0.031-2.725-1.747-2.109-3.169C49.404,46.015,49.887,45.519,50.482,45.281z" fill="#2E3192"></path>
	<path d="M16.006,49.958c0.597-1.378,1.759-2.647,3.308-2.87c0.945-0.165,1.941,0.371,2.329,1.243
		c0.642,1.379,0.181,3.023-0.676,4.206c-2.323,2.986-5.469,5.188-7.985,7.994c-1.688,2.525-2.493,5.685-2.165,8.711
		c-1.262-2.205-1.167-4.997-0.039-7.232c1.398-2.78,3.727-4.906,5.817-7.151c1.15-1.184,2.003-2.662,2.47-4.245
		c0.172-0.427,0.02-1.054-0.476-1.178C17.692,49.291,16.835,49.671,16.006,49.958z" fill="#2E3192"></path>
	<path d="M57.391,48.309c0.417-0.931,1.526-1.436,2.507-1.188c1.465,0.295,2.541,1.521,3.118,2.838
		c-0.83-0.287-1.69-0.667-2.588-0.52c-0.504,0.128-0.642,0.761-0.467,1.192c0.467,1.576,1.323,3.044,2.466,4.228
		c2.055,2.207,4.337,4.298,5.747,7.008c1.191,2.263,1.324,5.123,0.032,7.375c0.33-3.028-0.481-6.191-2.17-8.717
		c-2.516-2.803-5.66-5.003-7.982-7.99C57.192,51.346,56.728,49.688,57.391,48.309z" fill="#2E3192"></path>
	<path d="M33.143,52.774c-0.171-1.752,2.148-2.785,3.527-1.948c0.801,0.513,1.376,1.415,1.415,2.379
		c0.166,2.536-0.4,5.057-1.141,7.468c-1.556,4.919-4.248,9.651-8.378,12.844c-1.511,1.162-3.222,2.052-5.029,2.653
		c4.235-3.251,7.866-7.769,8.689-13.178C32.853,59.624,33.132,56.2,33.143,52.774z" fill="#2E3192"></path>
	<path d="M40.678,53.04c0.145-1.354,1.379-2.72,2.829-2.488c1.003,0.137,2.148,0.878,2.096,2.012
		c0.007,3.997,0.374,8.004,1.225,11.915c1.221,4.782,4.536,8.757,8.415,11.681c-3.637-1.118-6.715-3.624-8.977-6.638
		c-2.344-3.106-3.949-6.73-4.924-10.488C40.867,57.078,40.481,55.058,40.678,53.04z" fill="#2E3192"></path>
	<path d="M24.882,52.967c0.352-1.837,2.631-2.733,4.239-1.962c1.169,0.633,1.549,2.044,1.752,3.263
		c0.451,3.347-0.039,6.725-0.527,10.038c-0.656,4.1-3.075,8.134-6.911,9.948c1.049-0.913,1.592-2.231,1.91-3.553
		c0.679-2.889,0.681-5.888,0.485-8.833C25.588,58.897,24.297,55.974,24.882,52.967z" fill="#2E3192"></path>
	<path d="M49.043,51.435c1.517-1.47,4.509-0.516,4.843,1.598c0.519,2.751-0.547,5.456-0.893,8.161
		c-0.287,2.809-0.279,5.659,0.188,8.445c0.303,1.674,0.8,3.444,2.125,4.608c-3.704-1.749-6.085-5.593-6.829-9.535
		c-0.508-3.083-0.903-6.215-0.729-9.346C47.883,53.997,48.077,52.491,49.043,51.435z" fill="#2E3192"></path>
	<path d="M38.241,60.708c-0.147-0.766-0.124-1.562,0.224-2.271c0.206,0.46,0.404,0.927,0.599,1.395
		C38.791,60.127,38.519,60.421,38.241,60.708z" fill="#2E3192"></path>
	<path d="M35.434,72.883c-0.258-5.167,2.01-10.188,5.329-14.049c-0.032,0.616,0.121,1.294-0.16,1.87
		c-1.513,1.953-2.079,4.428-2.603,6.792c-0.456,2.548-0.823,5.175-0.384,7.75c0.152,0.707,0.352,1.476,0.912,1.976
		c0.611,0.515,1.556,0.201,1.939-0.438c0.54-0.895,0.59-1.971,0.664-2.983c0.021-2.408-0.391-4.794-0.831-7.151
		c0-1.454,0.054-2.914,0.143-4.365c1.894,3.799,3.084,8.1,2.55,12.364c-0.205,1.452-0.628,2.973-1.7,4.031
		c-1.081,1.075-3.03,0.929-4.005-0.22C35.925,76.951,35.572,74.838,35.434,72.883z" fill="#2E3192"></path>
	<path d="M14.427,60.903c1.527-0.818,3.5-0.921,5.011-0.011c0.924,0.548,1.596,1.427,2.051,2.388
		c-1.656-0.633-3.44-1.244-5.237-0.937c-1.693,0.255-3.13,1.609-3.566,3.255c-0.431,1.389-0.142,2.85,0.225,4.217
		c0.354-1.075,0.801-2.185,1.67-2.952c1.327-1.19,3.792-0.856,4.616,0.774c0.398,0.764,0.428,1.692,0.154,2.502
		c-0.498,1.277-2.223,1.788-3.389,1.129c-0.372-0.232-0.607-0.611-0.866-0.951c-0.576,1.57,0.024,3.274,1.223,4.365
		c-2.049-0.652-4.05-2.089-4.659-4.242c-0.46-2.001-0.417-4.133,0.192-6.098C12.279,62.948,13.139,61.632,14.427,60.903z" fill="#2E3192"></path>
	<path d="M60.166,60.6c1.94-0.774,4.38-0.242,5.73,1.384c1.292,1.509,1.721,3.563,1.768,5.504
		c0,1.452-0.081,3.004-0.883,4.266c-0.928,1.449-2.461,2.407-4.076,2.928c0.547-0.605,1.106-1.249,1.318-2.061
		c0.229-0.755,0.084-1.551-0.094-2.303c-0.234,0.308-0.451,0.637-0.759,0.877c-1.155,0.771-2.985,0.262-3.497-1.055
		c-0.399-1.143-0.14-2.565,0.834-3.343c1.126-0.84,2.864-0.895,3.935,0.069c0.867,0.756,1.297,1.863,1.67,2.922
		c0.381-1.361,0.648-2.819,0.221-4.203c-0.44-1.646-1.889-3-3.587-3.245c-1.789-0.297-3.561,0.311-5.212,0.94
		C58.068,62.121,58.964,61.088,60.166,60.6z" fill="#2E3192"></path>
	<path d="M18.756,73.685c1.317-0.519,2.948,0.396,3.118,1.815c0.283,1.381-0.93,2.828-2.352,2.715
		c-1.388,0.048-2.542-1.358-2.263-2.711C17.372,74.681,17.97,73.952,18.756,73.685z" fill="#2E3192"></path>
	<path d="M58.7,73.665c1.462-0.549,3.2,0.679,3.091,2.255c0.097,1.84-2.304,2.999-3.715,1.861
		C56.56,76.79,56.939,74.151,58.7,73.665z" fill="#2E3192"></path>
</g>
<g>
	<path d="M86.361,28.98c0-0.148,0.022-0.27,0.069-0.367c0.245,0,0.593-0.056,1.046-0.168
		c0.453-0.113,0.729-0.269,0.828-0.467c0.06-0.119,0.116-0.347,0.169-0.686c0.053-0.337,0.086-0.628,0.099-0.874
		c0.033-0.635,0.063-1.337,0.089-2.105c0.026-0.768,0.051-1.492,0.075-2.17c0.023-0.679,0.046-1.369,0.069-2.071
		c0.023-0.702,0.042-1.299,0.055-1.792c0.013-0.494,0.025-0.943,0.035-1.346c0.01-0.404,0.018-0.646,0.025-0.726
		c0-0.006,0-0.051,0-0.134c0-0.083-0.002-0.139-0.005-0.169c-0.003-0.029-0.007-0.077-0.01-0.139
		c-0.003-0.063-0.012-0.116-0.025-0.16c-0.013-0.042-0.033-0.084-0.059-0.124c-0.06-0.125-0.278-0.237-0.655-0.333
		s-0.671-0.144-0.882-0.144c-0.04-0.053-0.057-0.184-0.05-0.392c0.007-0.208,0.023-0.326,0.05-0.352
		c0.251,0.006,0.616,0.029,1.096,0.069c0.479,0.039,0.914,0.059,1.304,0.059c0.12,0,0.243-0.001,0.372-0.004
		c0.129-0.003,0.248-0.008,0.357-0.015c0.109-0.006,0.225-0.015,0.347-0.025c0.123-0.01,0.235-0.02,0.337-0.029
		s0.216-0.02,0.342-0.029c0.125-0.011,0.241-0.019,0.347-0.025c0.159,0.417,0.488,1.208,0.987,2.373s1.104,2.573,1.815,4.225
		c0.71,1.652,1.284,2.998,1.721,4.037c0,0.034,0.029,0.05,0.089,0.05c0.005,0,0.02-0.006,0.039-0.02
		c0.02-0.013,0.037-0.028,0.055-0.044c0.016-0.017,0.025-0.035,0.025-0.055c0.912-2.317,1.926-4.949,3.044-7.895
		c0.052-0.139,0.11-0.293,0.173-0.462c0.062-0.169,0.121-0.335,0.174-0.497c0.052-0.162,0.107-0.326,0.164-0.491
		c0.055-0.166,0.105-0.318,0.147-0.457c0.043-0.139,0.084-0.264,0.12-0.372c0.036-0.109,0.061-0.197,0.075-0.264l0.03-0.089
		c0.618,0.06,1.33,0.089,2.134,0.089c0.299,0,1.177-0.042,2.635-0.128c0.02,0.046,0.041,0.175,0.064,0.386
		c0.023,0.212,0.021,0.337-0.005,0.377c-0.164,0-0.417,0.033-0.753,0.099c-0.336,0.067-0.544,0.139-0.625,0.219
		c-0.132,0.158-0.198,0.46-0.198,0.903c0.005,0.325,0.027,1.132,0.064,2.424c0.036,1.291,0.073,2.61,0.109,3.958
		c0.037,1.348,0.067,2.451,0.094,3.312c0.007,0.086,0.014,0.228,0.02,0.427c0.007,0.198,0.014,0.343,0.02,0.432
		c0.007,0.09,0.016,0.214,0.028,0.372c0.014,0.159,0.029,0.287,0.044,0.383c0.016,0.096,0.036,0.202,0.062,0.318
		c0.025,0.116,0.057,0.22,0.096,0.312c0.05,0.132,0.253,0.23,0.609,0.293c0.354,0.062,0.637,0.094,0.849,0.094
		c0.044,0.09,0.069,0.222,0.077,0.396c0,0.032,0,0.064,0,0.096c0,0.123-0.009,0.207-0.029,0.251
		c-0.085-0.006-0.486-0.034-1.203-0.082c-0.718-0.048-1.27-0.072-1.654-0.072c-0.408,0-0.994,0.024-1.754,0.072
		c-0.762,0.048-1.231,0.076-1.41,0.082c-0.034-0.032-0.055-0.142-0.064-0.329c-0.011-0.186,0.003-0.325,0.044-0.415
		c0.212,0,0.491-0.028,0.842-0.084c0.351-0.056,0.575-0.134,0.675-0.233c0.059-0.067,0.107-0.191,0.144-0.373
		c0.036-0.182,0.054-0.353,0.054-0.511c0-0.086-0.005-0.298-0.02-0.635c-0.013-0.338-0.02-0.573-0.02-0.706
		c-0.151-5.555-0.235-8.492-0.248-8.81c0-0.025-0.003-0.062-0.011-0.108c-0.005-0.046-0.014-0.103-0.025-0.169
		c-0.009-0.066-0.027-0.123-0.053-0.169c-0.027-0.046-0.061-0.069-0.1-0.069c-0.034,0-0.069,0.054-0.108,0.159
		c-0.324,0.814-1.07,2.746-2.236,5.795c-1.168,3.049-1.884,4.912-2.147,5.586c-0.073,0.164-0.208,0.374-0.408,0.629
		c-0.198,0.256-0.363,0.39-0.496,0.403c-0.046,0-0.116-0.017-0.208-0.05L90.05,16.705c-0.178,6.145-0.278,9.541-0.298,10.19
		c0,0.51,0.03,0.888,0.09,1.132c0.06,0.172,0.329,0.306,0.808,0.402s0.834,0.144,1.066,0.144c0.046,0.058,0.073,0.182,0.08,0.372
		c0.006,0.19-0.003,0.314-0.03,0.372c-0.166-0.006-0.544-0.034-1.136-0.082c-0.591-0.048-1.079-0.072-1.462-0.072
		c-0.397,0-0.891,0.024-1.483,0.072c-0.592,0.048-1.01,0.076-1.254,0.082C86.383,29.272,86.361,29.16,86.361,28.98z" fill="#2E3192"></path>
	<path d="M106.745,28.96c0-0.152,0.017-0.274,0.05-0.367c0.171,0,0.431-0.06,0.778-0.179s0.57-0.249,0.669-0.387
		c0.298-0.443,0.609-1.063,0.933-1.857c2.604-6.27,4.132-9.991,4.582-11.163c0.046-0.105,0.122-0.216,0.228-0.332
		c0.105-0.116,0.216-0.214,0.332-0.293s0.21-0.118,0.283-0.118c0.152,0,0.258,0.029,0.318,0.089l4.611,11.795
		c0.073,0.172,0.144,0.347,0.213,0.526c0.07,0.179,0.125,0.326,0.168,0.442c0.042,0.116,0.086,0.229,0.129,0.338
		c0.043,0.109,0.075,0.194,0.094,0.254c0.073,0.167,0.193,0.312,0.362,0.438c0.168,0.126,0.344,0.216,0.525,0.269
		c0.182,0.053,0.339,0.093,0.471,0.119c0.133,0.027,0.231,0.04,0.298,0.04c0.059,0.08,0.089,0.218,0.089,0.417
		c0,0.02,0,0.037,0,0.049c0,0.155-0.017,0.247-0.05,0.278c-0.125-0.005-0.519-0.03-1.18-0.074c-0.662-0.042-1.187-0.065-1.576-0.065
		c-0.411,0-0.997,0.023-1.761,0.069c-0.764,0.046-1.179,0.07-1.245,0.07c-0.06-0.052-0.089-0.184-0.089-0.396
		c0-0.213,0.029-0.329,0.089-0.348c0.191,0,0.428-0.032,0.709-0.095c0.28-0.062,0.48-0.147,0.6-0.253
		c0.092-0.086,0.139-0.2,0.139-0.338c0-0.133-0.119-0.528-0.358-1.186c-0.237-0.657-0.475-1.281-0.714-1.872l-0.357-0.896
		c-0.046-0.06-0.089-0.09-0.129-0.09c-0.218-0.013-0.465-0.02-0.739-0.02c-0.274,0-0.565,0.004-0.873,0.01
		c-0.307,0.007-0.517,0.01-0.63,0.01c-0.965,0-1.748,0.017-2.35,0.05c-0.02,0-0.048,0.012-0.084,0.035
		c-0.037,0.023-0.054,0.042-0.054,0.055c-0.411,0.969-0.717,1.743-0.922,2.32c-0.119,0.319-0.217,0.632-0.292,0.941
		c-0.076,0.309-0.114,0.523-0.114,0.643c0,0.133,0.073,0.248,0.218,0.344s0.322,0.167,0.53,0.213c0.208,0.047,0.388,0.08,0.541,0.1
		c0.152,0.021,0.264,0.03,0.337,0.03c0.04,0.046,0.06,0.166,0.06,0.358c0,0.193-0.013,0.321-0.04,0.386
		c-0.125-0.005-0.257-0.015-0.396-0.026c-0.139-0.012-0.26-0.023-0.362-0.035c-0.103-0.012-0.216-0.021-0.342-0.03
		c-0.125-0.009-0.245-0.016-0.357-0.021c-0.113-0.006-0.243-0.012-0.392-0.018c-0.15-0.005-0.303-0.009-0.461-0.009
		c-0.312,0-0.589,0.007-0.833,0.022c-0.245,0.014-0.524,0.035-0.838,0.061c-0.314,0.026-0.563,0.044-0.749,0.056
		C106.768,29.273,106.745,29.154,106.745,28.96z M111.704,22.673c0,0.059,0.016,0.089,0.049,0.089
		c0.517,0.046,1.154,0.069,1.915,0.069c0.535,0,1.153-0.023,1.854-0.069c0.013,0,0.026-0.01,0.04-0.03
		c0.013-0.02,0.02-0.039,0.02-0.059l0.01-0.021l-1.894-4.869L111.704,22.673z" fill="#2E3192"></path>
	<path d="M123.291,28.945c0-0.182,0.023-0.306,0.069-0.372c0.12,0,0.282-0.011,0.491-0.035
		c0.208-0.023,0.42-0.066,0.635-0.129c0.215-0.063,0.339-0.137,0.372-0.224c0.1-0.317,0.148-0.949,0.148-1.894v-9.004
		c0-0.945-0.049-1.577-0.148-1.894c-0.033-0.086-0.159-0.159-0.376-0.218c-0.218-0.06-0.428-0.1-0.63-0.119
		c-0.201-0.02-0.365-0.029-0.491-0.029c-0.046-0.067-0.069-0.19-0.069-0.372s0.023-0.306,0.069-0.372
		c1.296,0.06,2.291,0.089,2.984,0.089c0.265,0,0.77-0.012,1.513-0.035c0.744-0.023,1.353-0.035,1.829-0.035
		c0.302,0,0.597,0.022,0.886,0.065c0.288,0.043,0.567,0.108,0.838,0.195c0.27,0.086,0.527,0.194,0.774,0.324
		s0.477,0.278,0.688,0.444c0.211,0.167,0.404,0.357,0.577,0.573s0.321,0.448,0.443,0.694s0.216,0.519,0.283,0.818
		c0.068,0.3,0.102,0.612,0.102,0.938c0,0.417-0.095,0.833-0.284,1.246c-0.19,0.414-0.433,0.777-0.729,1.092
		c-0.297,0.314-0.614,0.589-0.952,0.823c-0.338,0.236-0.668,0.402-0.99,0.502c0.253,0.4,0.513,0.793,0.778,1.181
		s0.529,0.768,0.792,1.141c0.263,0.375,0.479,0.677,0.65,0.911c0.17,0.233,0.393,0.528,0.668,0.885s0.443,0.575,0.505,0.654
		c0.896,1.111,1.979,1.707,3.251,1.786c0.033,0.066,0.051,0.152,0.051,0.257c0,0.046-0.004,0.096-0.011,0.149
		c-0.021,0.179-0.04,0.291-0.06,0.337c-0.311,0.007-0.604,0.01-0.883,0.01c-0.892,0-1.586-0.033-2.082-0.099
		c-0.496-0.02-0.959-0.155-1.389-0.407c-0.43-0.251-0.79-0.569-1.081-0.952c-0.126-0.159-0.683-0.933-1.671-2.32
		c-0.988-1.389-1.645-2.324-1.968-2.807c-0.046-0.067-0.12-0.132-0.223-0.198s-0.206-0.1-0.312-0.1h-0.753v3.848
		c0,0.992,0.046,1.624,0.139,1.894c0.04,0.12,0.243,0.214,0.61,0.283c0.366,0.069,0.663,0.104,0.886,0.104
		c0.04,0.066,0.06,0.19,0.06,0.372c0,0.182-0.02,0.306-0.06,0.372c-1.208-0.093-2.19-0.139-2.944-0.139
		c-0.74,0-1.711,0.046-2.915,0.139C123.314,29.251,123.291,29.127,123.291,28.945z M127.585,21.701h1.111
		c0.535,0,1.031-0.124,1.487-0.37c0.456-0.246,0.823-0.597,1.101-1.054c0.278-0.457,0.417-0.968,0.417-1.534
		c0-0.4-0.03-0.772-0.09-1.115c-0.059-0.342-0.16-0.667-0.302-0.975c-0.143-0.306-0.322-0.568-0.541-0.784s-0.494-0.388-0.828-0.514
		c-0.334-0.126-0.709-0.19-1.125-0.19c-0.688,0-1.064,0.083-1.131,0.25c-0.02,0.04-0.033,0.085-0.044,0.135
		c-0.01,0.05-0.019,0.107-0.024,0.174c-0.007,0.067-0.013,0.13-0.015,0.19c-0.004,0.06-0.008,0.14-0.01,0.24
		c-0.004,0.1-0.006,0.181-0.006,0.245c0,0.063,0,0.157,0,0.279c0,0.124,0,0.218,0,0.285V21.701z" fill="#2E3192"></path>
	<path d="M138.794,28.945c0-0.182,0.023-0.306,0.069-0.372c0.119,0,0.282-0.011,0.491-0.035
		c0.208-0.023,0.42-0.066,0.634-0.129c0.216-0.063,0.34-0.137,0.372-0.224c0.1-0.317,0.149-0.949,0.149-1.894v-9.004
		c0-0.945-0.05-1.577-0.149-1.894c-0.026-0.066-0.105-0.125-0.237-0.179c-0.133-0.053-0.283-0.093-0.451-0.119
		c-0.169-0.027-0.326-0.048-0.471-0.065c-0.146-0.016-0.259-0.025-0.338-0.025c-0.046-0.066-0.069-0.189-0.069-0.372
		c0-0.182,0.023-0.305,0.069-0.371c1.204,0.085,2.182,0.128,2.936,0.128c0.74,0,1.716-0.042,2.925-0.128
		c0.04,0.066,0.061,0.189,0.061,0.371c0,0.183-0.021,0.306-0.061,0.372c-0.224,0-0.521,0.035-0.887,0.104
		c-0.367,0.069-0.57,0.164-0.61,0.283c-0.092,0.271-0.139,0.902-0.139,1.894v9.004c0,0.992,0.047,1.624,0.139,1.894
		c0.04,0.12,0.243,0.214,0.61,0.283c0.366,0.069,0.663,0.104,0.887,0.104c0.04,0.066,0.061,0.19,0.061,0.372
		c0,0.182-0.021,0.306-0.061,0.372c-1.209-0.093-2.191-0.139-2.945-0.139c-0.74,0-1.711,0.046-2.915,0.139
		C138.817,29.251,138.794,29.127,138.794,28.945z" fill="#2E3192"></path>
	<path d="M147.377,25.162c0.032-0.06,0.128-0.124,0.285-0.193c0.157-0.069,0.271-0.104,0.344-0.104
		c0.162,0,0.257,0.066,0.283,0.199c0.039,0.237,0.108,0.494,0.206,0.768c0.099,0.274,0.248,0.577,0.447,0.908
		c0.2,0.331,0.433,0.626,0.698,0.888c0.265,0.261,0.601,0.48,1.006,0.66c0.406,0.178,0.845,0.267,1.316,0.267
		c0.212,0,0.418-0.023,0.616-0.069c0.198-0.045,0.391-0.112,0.577-0.197c0.185-0.086,0.353-0.197,0.502-0.333
		c0.148-0.135,0.279-0.291,0.393-0.466c0.112-0.175,0.2-0.38,0.263-0.615c0.062-0.235,0.095-0.492,0.095-0.769
		c0-0.185-0.021-0.365-0.06-0.541c-0.04-0.174-0.104-0.342-0.193-0.5c-0.091-0.16-0.178-0.305-0.264-0.437
		c-0.087-0.132-0.208-0.267-0.363-0.406c-0.156-0.139-0.291-0.256-0.407-0.353c-0.116-0.096-0.272-0.208-0.467-0.337
		c-0.196-0.129-0.352-0.229-0.468-0.302c-0.115-0.072-0.28-0.174-0.492-0.302c-0.212-0.129-0.364-0.22-0.456-0.273
		c-0.04-0.026-0.094-0.06-0.16-0.099c-0.245-0.152-0.432-0.27-0.559-0.353c-0.127-0.082-0.306-0.203-0.534-0.361
		c-0.228-0.16-0.405-0.291-0.533-0.397s-0.285-0.245-0.476-0.417c-0.189-0.172-0.338-0.328-0.445-0.467
		c-0.107-0.139-0.226-0.305-0.353-0.5s-0.224-0.387-0.289-0.575c-0.065-0.188-0.12-0.397-0.167-0.625
		c-0.045-0.229-0.068-0.464-0.068-0.709c0-0.569,0.132-1.107,0.395-1.617c0.262-0.509,0.606-0.937,1.033-1.284
		s0.915-0.622,1.466-0.824c0.551-0.201,1.113-0.302,1.684-0.302c0.31,0,0.621,0.02,0.934,0.06c0.312,0.039,0.57,0.082,0.774,0.128
		c0.203,0.046,0.497,0.119,0.88,0.218c0.384,0.1,0.703,0.175,0.955,0.229c0.101,0.859,0.184,2.02,0.251,3.48
		c-0.021,0.106-0.104,0.159-0.249,0.159c-0.396,0-0.607-0.069-0.635-0.208c-0.031-0.245-0.098-0.507-0.198-0.784
		c-0.1-0.277-0.236-0.558-0.41-0.843c-0.175-0.284-0.371-0.54-0.59-0.768c-0.221-0.228-0.481-0.413-0.783-0.555
		c-0.304-0.143-0.62-0.213-0.948-0.213c-0.71,0-1.254,0.198-1.636,0.595c-0.381,0.397-0.571,0.929-0.571,1.597
		c0,0.158,0.02,0.316,0.06,0.471c0.039,0.156,0.085,0.296,0.135,0.422c0.049,0.125,0.129,0.261,0.238,0.406
		c0.108,0.146,0.203,0.268,0.283,0.368c0.079,0.099,0.2,0.218,0.362,0.357c0.163,0.139,0.29,0.247,0.383,0.327
		c0.093,0.079,0.236,0.188,0.433,0.327c0.195,0.139,0.338,0.237,0.427,0.293c0.091,0.056,0.244,0.155,0.463,0.297
		s0.364,0.237,0.438,0.282c0.099,0.067,0.255,0.166,0.467,0.298c0.192,0.118,0.338,0.211,0.437,0.277
		c0.098,0.066,0.238,0.163,0.42,0.292c0.181,0.129,0.324,0.239,0.43,0.328c0.104,0.089,0.236,0.203,0.396,0.342
		s0.287,0.268,0.382,0.387c0.096,0.119,0.204,0.256,0.325,0.411c0.121,0.156,0.216,0.312,0.286,0.471
		c0.07,0.159,0.139,0.329,0.205,0.511c0.066,0.183,0.115,0.374,0.144,0.575c0.028,0.202,0.043,0.412,0.043,0.63
		c0,0.602-0.133,1.167-0.398,1.696c-0.265,0.529-0.617,0.97-1.058,1.324c-0.439,0.354-0.942,0.634-1.509,0.838
		c-0.565,0.205-1.146,0.307-1.741,0.307c-0.446,0-0.956-0.041-1.53-0.124c-0.575-0.083-1-0.152-1.274-0.208
		c-0.276-0.056-0.732-0.157-1.369-0.303c-0.111-0.521-0.219-1.19-0.32-2.003C147.458,26.005,147.397,25.453,147.377,25.162z" fill="#2E3192"></path>
	<path d="M165.048,25.162c0.033-0.06,0.128-0.124,0.286-0.193c0.156-0.069,0.271-0.104,0.344-0.104
		c0.161,0,0.256,0.066,0.282,0.199c0.04,0.237,0.109,0.494,0.207,0.768c0.098,0.274,0.247,0.577,0.446,0.908
		c0.201,0.331,0.433,0.626,0.698,0.888c0.266,0.261,0.601,0.48,1.007,0.66c0.406,0.178,0.845,0.267,1.316,0.267
		c0.212,0,0.417-0.023,0.616-0.069c0.198-0.045,0.391-0.112,0.576-0.197c0.186-0.086,0.353-0.197,0.502-0.333
		c0.149-0.135,0.28-0.291,0.393-0.466s0.2-0.38,0.263-0.615c0.063-0.235,0.096-0.492,0.096-0.769c0-0.185-0.021-0.365-0.06-0.541
		c-0.04-0.174-0.105-0.342-0.194-0.5c-0.09-0.16-0.177-0.305-0.264-0.437c-0.086-0.132-0.207-0.267-0.363-0.406
		c-0.155-0.139-0.291-0.256-0.406-0.353c-0.117-0.096-0.272-0.208-0.468-0.337c-0.195-0.129-0.352-0.229-0.467-0.302
		c-0.116-0.072-0.28-0.174-0.492-0.302c-0.212-0.129-0.364-0.22-0.457-0.273c-0.04-0.026-0.094-0.06-0.159-0.099
		c-0.246-0.152-0.432-0.27-0.559-0.353c-0.128-0.082-0.306-0.203-0.534-0.361c-0.229-0.16-0.406-0.291-0.533-0.397
		c-0.129-0.106-0.286-0.245-0.476-0.417c-0.189-0.172-0.338-0.328-0.446-0.467c-0.107-0.139-0.225-0.305-0.353-0.5
		c-0.127-0.195-0.223-0.387-0.289-0.575c-0.064-0.188-0.12-0.397-0.166-0.625c-0.046-0.229-0.068-0.464-0.068-0.709
		c0-0.569,0.131-1.107,0.394-1.617c0.262-0.509,0.606-0.937,1.034-1.284c0.426-0.347,0.915-0.622,1.466-0.824
		c0.551-0.201,1.112-0.302,1.683-0.302c0.311,0,0.622,0.02,0.934,0.06c0.312,0.039,0.571,0.082,0.774,0.128s0.497,0.119,0.881,0.218
		c0.384,0.1,0.702,0.175,0.955,0.229c0.1,0.859,0.184,2.02,0.25,3.48c-0.021,0.106-0.104,0.159-0.248,0.159
		c-0.396,0-0.608-0.069-0.635-0.208c-0.032-0.245-0.098-0.507-0.198-0.784c-0.1-0.277-0.237-0.558-0.411-0.843
		c-0.174-0.284-0.371-0.54-0.59-0.768c-0.22-0.228-0.48-0.413-0.783-0.555c-0.304-0.143-0.619-0.213-0.948-0.213
		c-0.709,0-1.254,0.198-1.635,0.595s-0.571,0.929-0.571,1.597c0,0.158,0.02,0.316,0.06,0.471c0.039,0.156,0.084,0.296,0.134,0.422
		c0.05,0.125,0.13,0.261,0.239,0.406c0.108,0.146,0.203,0.268,0.283,0.368c0.079,0.099,0.2,0.218,0.362,0.357
		c0.162,0.139,0.29,0.247,0.382,0.327c0.093,0.079,0.237,0.188,0.433,0.327c0.196,0.139,0.339,0.237,0.428,0.293
		c0.09,0.056,0.244,0.155,0.462,0.297c0.219,0.143,0.365,0.237,0.438,0.282c0.1,0.067,0.255,0.166,0.468,0.298
		c0.192,0.118,0.337,0.211,0.437,0.277c0.098,0.066,0.238,0.163,0.42,0.292c0.181,0.129,0.324,0.239,0.429,0.328
		c0.105,0.089,0.237,0.203,0.396,0.342s0.286,0.268,0.382,0.387c0.095,0.119,0.204,0.256,0.324,0.411
		c0.121,0.156,0.217,0.312,0.286,0.471c0.07,0.159,0.139,0.329,0.206,0.511c0.066,0.183,0.114,0.374,0.143,0.575
		c0.029,0.202,0.043,0.412,0.043,0.63c0,0.602-0.133,1.167-0.397,1.696c-0.266,0.529-0.618,0.97-1.058,1.324
		c-0.439,0.354-0.942,0.634-1.509,0.838s-1.146,0.307-1.742,0.307c-0.446,0-0.956-0.041-1.53-0.124
		c-0.574-0.083-0.999-0.152-1.274-0.208s-0.731-0.157-1.369-0.303c-0.111-0.521-0.218-1.19-0.319-2.003
		C165.129,26.005,165.068,25.453,165.048,25.162z" fill="#2E3192"></path>
	<path d="M176.377,17.973c0.112-0.509,0.314-1.852,0.605-4.027c0.053-0.026,0.112-0.038,0.179-0.035
		s0.136,0.015,0.208,0.035c0.06,0.013,0.183,0.056,0.367,0.129c0.185,0.073,0.398,0.137,0.64,0.193s0.511,0.084,0.808,0.084h8.163
		c0.291,0,0.561-0.028,0.808-0.084c0.248-0.056,0.469-0.12,0.66-0.193c0.191-0.073,0.32-0.116,0.386-0.129
		c0.08-0.013,0.148-0.021,0.208-0.025c0.06-0.003,0.11,0.005,0.149,0.025c0.311,2.334,0.505,3.676,0.584,4.027
		c-0.032,0.033-0.106,0.07-0.222,0.114c-0.116,0.043-0.221,0.064-0.312,0.064c-0.14,0-0.231-0.046-0.278-0.139
		c-0.065-0.383-0.17-0.742-0.312-1.076c-0.143-0.333-0.311-0.625-0.505-0.877c-0.194-0.251-0.417-0.448-0.668-0.59
		c-0.25-0.142-0.515-0.212-0.791-0.212h-2.465v11.037c0,0.992,0.046,1.624,0.138,1.894c0.04,0.12,0.242,0.214,0.607,0.283
		c0.363,0.069,0.658,0.104,0.882,0.104c0.039,0.066,0.059,0.19,0.059,0.372c0,0.182-0.017,0.306-0.053,0.372
		c-1.208-0.093-2.19-0.139-2.947-0.139c-0.756,0-1.736,0.046-2.939,0.139c-0.04-0.066-0.06-0.19-0.06-0.372
		c0-0.182,0.022-0.306,0.068-0.372c0.224,0,0.521-0.035,0.893-0.104s0.577-0.164,0.616-0.283c0.104-0.317,0.158-0.949,0.158-1.894
		V15.255h-2.539c-0.549,0-1.031,0.261-1.447,0.783c-0.417,0.522-0.694,1.18-0.833,1.973c-0.047,0.093-0.13,0.139-0.249,0.139
		c-0.099,0-0.21-0.021-0.332-0.064C176.488,18.043,176.41,18.005,176.377,17.973z" fill="#2E3192"></path>
	<path d="M191.883,28.925c0-0.181,0.023-0.305,0.069-0.372c0.238,0,0.537-0.031,0.897-0.093
		c0.36-0.063,0.561-0.154,0.601-0.273c0.1-0.317,0.148-0.949,0.148-1.894v-9.004c0-0.945-0.049-1.577-0.148-1.894
		c-0.027-0.066-0.106-0.125-0.238-0.179c-0.133-0.053-0.283-0.093-0.451-0.119c-0.169-0.027-0.326-0.048-0.471-0.065
		c-0.146-0.016-0.258-0.025-0.338-0.025c-0.046-0.066-0.069-0.189-0.069-0.372c0-0.182,0.023-0.305,0.069-0.371
		c1.204,0.085,2.182,0.128,2.936,0.128c0.482,0,1.659-0.029,3.53-0.089s3.137-0.089,3.799-0.089
		c0.065,0.448,0.188,1.074,0.366,1.879c0.179,0.805,0.275,1.248,0.288,1.33c-0.072,0.076-0.231,0.113-0.476,0.113
		c-0.179,0-0.291-0.053-0.338-0.161c-0.244-0.78-0.566-1.343-0.966-1.689c-0.401-0.346-0.922-0.519-1.562-0.519h-1.904
		c-0.833,0-1.282,0.084-1.35,0.251c-0.02,0.054-0.035,0.118-0.049,0.191c-0.013,0.074-0.022,0.141-0.03,0.201
		c-0.006,0.061-0.012,0.146-0.014,0.256c-0.004,0.111-0.006,0.197-0.006,0.257s0,0.163,0,0.307s0,0.247,0,0.306v4.157
		c0,0.061,0.093,0.109,0.278,0.146c0.185,0.037,0.409,0.055,0.675,0.055h1.199c0.186,0,0.346-0.001,0.48-0.005
		c0.136-0.003,0.267-0.013,0.392-0.03c0.126-0.017,0.231-0.032,0.318-0.046c0.085-0.014,0.17-0.04,0.253-0.081
		c0.082-0.041,0.15-0.08,0.203-0.118s0.105-0.093,0.158-0.168c0.053-0.075,0.094-0.142,0.124-0.204
		c0.029-0.062,0.064-0.151,0.104-0.27c0.039-0.12,0.072-0.228,0.099-0.327c0.027-0.099,0.063-0.232,0.109-0.402
		c0.02-0.123,0.126-0.184,0.317-0.184c0.179,0,0.314,0.054,0.406,0.164v4.277c-0.06,0.087-0.188,0.131-0.386,0.131
		c-0.179,0-0.291-0.062-0.338-0.184c-0.1-0.381-0.194-0.68-0.287-0.897s-0.167-0.358-0.224-0.423
		c-0.056-0.064-0.127-0.12-0.214-0.168c-0.211-0.108-0.898-0.163-2.062-0.163c-1.07,0-1.606,0.083-1.606,0.249v3.867
		c0,0.99,0.047,1.564,0.139,1.723c0.106,0.126,0.281,0.211,0.526,0.255c0.244,0.042,0.581,0.061,1.012,0.054h1.398
		c1.064,0,1.857-0.21,2.38-0.63c0.535-0.448,0.972-1.193,1.31-2.234c0.025-0.094,0.131-0.14,0.316-0.14
		c0.119,0,0.247,0.015,0.382,0.044c0.136,0.029,0.22,0.066,0.253,0.11c-0.053,0.139-0.166,0.448-0.338,0.928
		c-0.171,0.48-0.301,0.845-0.386,1.091c-0.087,0.248-0.183,0.548-0.288,0.904c-0.105,0.355-0.175,0.648-0.208,0.878
		c-0.391,0-1.498-0.008-3.322-0.025c-1.825-0.016-3.303-0.025-4.433-0.025c-0.51,0-1.098,0.009-1.766,0.025
		c-0.668,0.017-1.068,0.025-1.2,0.025C191.906,29.231,191.883,29.108,191.883,28.925z" fill="#2E3192"></path>
	<path d="M205.959,28.925c0-0.181,0.023-0.305,0.069-0.372c0.238,0,0.537-0.031,0.897-0.093
		c0.36-0.063,0.561-0.154,0.601-0.273c0.1-0.317,0.148-0.949,0.148-1.894v-9.004c0-0.945-0.049-1.577-0.148-1.894
		c-0.027-0.066-0.106-0.125-0.238-0.179c-0.133-0.053-0.283-0.093-0.451-0.119c-0.169-0.027-0.325-0.048-0.471-0.065
		c-0.146-0.016-0.258-0.025-0.338-0.025c-0.046-0.066-0.069-0.189-0.069-0.372c0-0.182,0.023-0.305,0.069-0.371
		c1.204,0.085,2.183,0.128,2.937,0.128c0.739,0,1.715-0.042,2.925-0.128c0.04,0.066,0.06,0.189,0.06,0.371
		c0,0.183-0.02,0.306-0.06,0.372c-0.225,0-0.521,0.035-0.888,0.105c-0.367,0.069-0.569,0.164-0.609,0.283
		c-0.093,0.271-0.14,0.904-0.14,1.898v9.025c0,0.987,0.047,1.561,0.14,1.719c0.105,0.126,0.281,0.211,0.525,0.254
		c0.244,0.042,0.581,0.061,1.012,0.054h1.398c1.064,0,1.857-0.21,2.38-0.63c0.535-0.448,0.972-1.193,1.31-2.234
		c0.025-0.094,0.132-0.14,0.316-0.14c0.119,0,0.247,0.015,0.382,0.046c0.136,0.03,0.22,0.069,0.253,0.116
		c-0.053,0.138-0.166,0.447-0.337,0.927c-0.172,0.479-0.302,0.843-0.387,1.088c-0.086,0.247-0.183,0.547-0.287,0.902
		c-0.106,0.355-0.176,0.648-0.209,0.877c-0.391,0-1.498-0.008-3.322-0.025c-1.825-0.016-3.303-0.025-4.433-0.025
		c-0.51,0-1.098,0.009-1.766,0.025c-0.667,0.017-1.068,0.025-1.2,0.025C205.982,29.231,205.959,29.108,205.959,28.925z" fill="#2E3192"></path>
	<path d="M219.501,28.925c0-0.181,0.022-0.305,0.069-0.372c0.237,0,0.536-0.031,0.897-0.093
		c0.36-0.063,0.561-0.154,0.6-0.273c0.1-0.317,0.148-0.949,0.148-1.894v-9.004c0-0.945-0.049-1.577-0.148-1.894
		c-0.026-0.066-0.106-0.125-0.238-0.179c-0.132-0.053-0.282-0.093-0.451-0.119c-0.169-0.027-0.325-0.048-0.471-0.065
		c-0.146-0.016-0.258-0.025-0.337-0.025c-0.047-0.066-0.069-0.189-0.069-0.372c0-0.182,0.022-0.305,0.069-0.371
		c1.203,0.085,2.182,0.128,2.936,0.128c0.739,0,1.715-0.042,2.925-0.128c0.04,0.066,0.06,0.189,0.06,0.371
		c0,0.183-0.02,0.306-0.06,0.372c-0.225,0-0.521,0.035-0.888,0.105c-0.366,0.069-0.569,0.164-0.609,0.283
		c-0.093,0.271-0.139,0.904-0.139,1.898v9.025c0,0.987,0.046,1.561,0.139,1.719c0.105,0.126,0.281,0.211,0.525,0.254
		c0.244,0.042,0.582,0.061,1.012,0.054h1.398c1.064,0,1.857-0.21,2.38-0.63c0.535-0.448,0.972-1.193,1.31-2.234
		c0.025-0.094,0.132-0.14,0.316-0.14c0.12,0,0.247,0.015,0.382,0.046c0.136,0.03,0.221,0.069,0.253,0.116
		c-0.053,0.138-0.165,0.447-0.337,0.927c-0.172,0.479-0.301,0.843-0.387,1.088c-0.086,0.247-0.183,0.547-0.287,0.902
		c-0.106,0.355-0.176,0.648-0.208,0.877c-0.392,0-1.498-0.008-3.323-0.025c-1.825-0.016-3.303-0.025-4.433-0.025
		c-0.51,0-1.098,0.009-1.766,0.025c-0.667,0.017-1.067,0.025-1.199,0.025C219.523,29.231,219.501,29.108,219.501,28.925z" fill="#2E3192"></path>
	<path d="M231.861,28.96c0-0.152,0.018-0.274,0.05-0.367c0.172,0,0.431-0.06,0.778-0.179
		c0.347-0.119,0.57-0.249,0.669-0.387c0.299-0.443,0.609-1.063,0.934-1.857c2.604-6.27,4.132-9.991,4.581-11.163
		c0.046-0.105,0.122-0.216,0.228-0.332c0.106-0.116,0.217-0.214,0.332-0.293c0.116-0.079,0.21-0.118,0.283-0.118
		c0.152,0,0.258,0.029,0.318,0.089l4.61,11.795c0.073,0.172,0.145,0.347,0.214,0.526c0.069,0.179,0.125,0.326,0.168,0.442
		s0.086,0.229,0.129,0.338s0.075,0.194,0.095,0.254c0.073,0.167,0.193,0.312,0.362,0.438c0.168,0.126,0.344,0.216,0.525,0.269
		c0.181,0.053,0.339,0.093,0.471,0.119c0.133,0.027,0.231,0.04,0.298,0.04c0.059,0.08,0.089,0.218,0.089,0.417
		c0,0.02,0,0.037,0,0.049c0,0.155-0.017,0.247-0.05,0.278c-0.125-0.005-0.519-0.03-1.18-0.074c-0.662-0.042-1.187-0.065-1.577-0.065
		c-0.41,0-0.997,0.023-1.761,0.069c-0.764,0.046-1.178,0.07-1.244,0.07c-0.06-0.052-0.089-0.184-0.089-0.396
		c0-0.213,0.029-0.329,0.089-0.348c0.191,0,0.429-0.032,0.71-0.095c0.28-0.062,0.48-0.147,0.6-0.253
		c0.093-0.086,0.139-0.2,0.139-0.338c0-0.133-0.119-0.528-0.357-1.186c-0.238-0.657-0.476-1.281-0.714-1.872l-0.357-0.896
		c-0.046-0.06-0.089-0.09-0.129-0.09c-0.218-0.013-0.465-0.02-0.738-0.02c-0.274,0-0.565,0.004-0.873,0.01
		c-0.307,0.007-0.517,0.01-0.63,0.01c-0.965,0-1.748,0.017-2.35,0.05c-0.02,0-0.049,0.012-0.085,0.035
		c-0.036,0.023-0.055,0.042-0.055,0.055c-0.41,0.969-0.717,1.743-0.922,2.32c-0.119,0.319-0.217,0.632-0.293,0.941
		c-0.075,0.309-0.113,0.523-0.113,0.643c0,0.133,0.072,0.248,0.218,0.344s0.322,0.167,0.53,0.213c0.208,0.047,0.389,0.08,0.54,0.1
		c0.152,0.021,0.265,0.03,0.338,0.03c0.04,0.046,0.06,0.166,0.06,0.358c0,0.193-0.014,0.321-0.04,0.386
		c-0.126-0.005-0.257-0.015-0.396-0.026c-0.139-0.012-0.26-0.023-0.362-0.035c-0.102-0.012-0.216-0.021-0.342-0.03
		c-0.125-0.009-0.244-0.016-0.356-0.021c-0.113-0.006-0.243-0.012-0.392-0.018c-0.149-0.005-0.303-0.009-0.461-0.009
		c-0.312,0-0.59,0.007-0.833,0.022c-0.245,0.014-0.524,0.035-0.839,0.061s-0.563,0.044-0.749,0.056
		C231.885,29.273,231.861,29.154,231.861,28.96z M236.82,22.673c0,0.059,0.017,0.089,0.049,0.089
		c0.517,0.046,1.154,0.069,1.915,0.069c0.535,0,1.153-0.023,1.854-0.069c0.014,0,0.027-0.01,0.04-0.03
		c0.014-0.02,0.021-0.039,0.021-0.059l0.01-0.021l-1.895-4.869L236.82,22.673z" fill="#2E3192"></path>
	<path d="M86.916,49.529c0.238,0,0.555-0.035,0.952-0.104c0.396-0.069,0.608-0.157,0.635-0.264
		c0.079-0.251,0.119-0.819,0.119-1.705v-9.69c0-0.886-0.04-1.451-0.119-1.696c-0.027-0.113-0.238-0.204-0.635-0.273
		c-0.397-0.07-0.714-0.104-0.952-0.104c-0.053-0.06-0.08-0.182-0.08-0.367c0-0.013,0-0.023,0-0.029c0-0.166,0.026-0.278,0.08-0.337
		c0.159,0.006,0.444,0.021,0.858,0.044c0.413,0.023,0.758,0.041,1.036,0.055c0.278,0.013,0.552,0.02,0.823,0.02
		c0.211,0,0.438-0.005,0.679-0.015c0.241-0.01,0.455-0.02,0.64-0.03c0.185-0.01,0.417-0.023,0.694-0.039
		c0.277-0.017,0.506-0.028,0.685-0.035c0.053,0.06,0.077,0.182,0.074,0.367c-0.004,0.185-0.028,0.307-0.074,0.367
		c-0.238,0-0.556,0.036-0.952,0.105c-0.397,0.07-0.608,0.161-0.635,0.274c-0.08,0.247-0.119,0.815-0.119,1.707v4.053
		c0,0.014,0.003,0.026,0.01,0.04s0.013,0.021,0.02,0.021l0.02,0.01c2.254,0.046,3.458,0.069,3.61,0.069
		c0.277,0,1.45-0.023,3.521-0.069c0.026-0.026,0.039-0.057,0.039-0.09v-4.033c0-0.892-0.036-1.46-0.109-1.707
		c-0.034-0.113-0.249-0.204-0.644-0.274c-0.397-0.069-0.712-0.105-0.944-0.105c-0.051-0.06-0.08-0.182-0.083-0.367
		s0.025-0.307,0.083-0.367c0.153,0.006,0.436,0.021,0.849,0.044c0.413,0.023,0.76,0.041,1.042,0.055
		c0.28,0.013,0.554,0.02,0.817,0.02c0.212,0,0.439-0.005,0.685-0.015c0.244-0.01,0.458-0.02,0.639-0.03
		c0.182-0.01,0.413-0.023,0.694-0.039c0.281-0.017,0.507-0.028,0.678-0.035c0.054,0.053,0.08,0.166,0.08,0.337
		c0,0.013,0,0.023,0,0.029c0,0.185-0.026,0.307-0.08,0.367c-0.231,0-0.546,0.035-0.947,0.104c-0.399,0.069-0.613,0.16-0.639,0.273
		c-0.079,0.245-0.12,0.81-0.12,1.696v9.69c0,0.886,0.041,1.454,0.12,1.705c0.026,0.106,0.24,0.194,0.639,0.264
		c0.4,0.069,0.715,0.104,0.947,0.104c0.054,0.059,0.08,0.182,0.08,0.366c0,0.014,0,0.023,0,0.029c0,0.166-0.026,0.278-0.08,0.338
		c-0.164-0.007-0.449-0.021-0.853-0.045c-0.402-0.023-0.743-0.041-1.02-0.054c-0.278-0.014-0.552-0.021-0.819-0.021
		c-0.267,0-0.543,0.007-0.823,0.021c-0.281,0.013-0.628,0.03-1.042,0.054s-0.696,0.038-0.849,0.045
		c-0.059-0.06-0.087-0.182-0.083-0.367c0.003-0.185,0.032-0.308,0.083-0.366c0.12,0,0.292-0.014,0.517-0.04
		c0.224-0.027,0.454-0.069,0.689-0.129c0.235-0.061,0.363-0.126,0.382-0.199c0.073-0.251,0.109-0.819,0.109-1.705v-4.552
		c0-0.02-0.004-0.037-0.011-0.05c-0.005-0.013-0.013-0.023-0.02-0.03l-0.009-0.02c-0.186,0-0.705-0.015-1.558-0.044
		c-0.853-0.03-1.507-0.046-1.963-0.046c-2.241,0-3.455,0.047-3.64,0.14l-0.02,0.05v4.552c0,0.886,0.04,1.454,0.119,1.705
		c0.026,0.106,0.238,0.194,0.635,0.264c0.396,0.069,0.714,0.104,0.952,0.104c0.046,0.059,0.07,0.182,0.074,0.366
		c0.003,0.186-0.021,0.308-0.074,0.367c-0.166-0.007-0.45-0.021-0.854-0.045s-0.744-0.041-1.021-0.054
		c-0.277-0.014-0.552-0.021-0.823-0.021s-0.545,0.007-0.823,0.021c-0.278,0.013-0.623,0.03-1.036,0.054
		c-0.414,0.023-0.699,0.038-0.858,0.045c-0.053-0.054-0.08-0.166-0.08-0.338C86.836,49.727,86.863,49.595,86.916,49.529z" fill="#2E3192"></path>
	<path d="M105.14,49.599c0.237,0,0.555-0.035,0.951-0.104c0.397-0.069,0.609-0.157,0.635-0.264
		c0.079-0.251,0.119-0.819,0.119-1.705v-9.829c0-0.886-0.04-1.451-0.119-1.696c-0.026-0.113-0.238-0.204-0.635-0.273
		c-0.396-0.069-0.714-0.104-0.951-0.104c-0.054-0.06-0.08-0.168-0.08-0.327c0-0.007,0-0.017,0-0.03c0-0.145,0.026-0.248,0.08-0.307
		c0.158,0.006,0.444,0.021,0.857,0.044c0.414,0.023,0.759,0.041,1.037,0.055c0.278,0.013,0.552,0.02,0.822,0.02
		c0.212,0,0.438-0.005,0.68-0.015c0.241-0.01,0.454-0.02,0.639-0.03c0.185-0.01,0.417-0.023,0.694-0.039
		c0.278-0.017,0.505-0.028,0.685-0.035c0.052,0.053,0.079,0.155,0.079,0.307c0,0.007,0,0.017,0,0.03
		c0,0.159-0.027,0.267-0.079,0.327c-0.238,0-0.556,0.035-0.953,0.104c-0.396,0.07-0.608,0.161-0.635,0.273
		c-0.079,0.245-0.118,0.81-0.118,1.696v9.829c0,0.886,0.039,1.454,0.118,1.705c0.027,0.106,0.239,0.194,0.635,0.264
		c0.397,0.069,0.715,0.104,0.953,0.104c0.052,0.065,0.079,0.178,0.079,0.336c0,0.008,0,0.014,0,0.021
		c0,0.146-0.027,0.248-0.079,0.308c-0.166-0.007-0.45-0.021-0.853-0.045c-0.403-0.023-0.744-0.041-1.021-0.054
		c-0.278-0.014-0.552-0.021-0.824-0.021c-0.271,0-0.544,0.007-0.822,0.021c-0.278,0.013-0.623,0.03-1.037,0.054
		c-0.413,0.023-0.699,0.038-0.857,0.045c-0.054-0.054-0.08-0.155-0.08-0.308C105.061,49.783,105.086,49.664,105.14,49.599z" fill="#2E3192"></path>
	<path d="M114.002,42.783c0-0.608,0.064-1.207,0.193-1.796c0.129-0.587,0.316-1.141,0.56-1.66
		c0.245-0.519,0.54-1.01,0.883-1.473c0.343-0.462,0.739-0.876,1.185-1.243c0.447-0.368,0.926-0.683,1.438-0.947
		c0.512-0.264,1.067-0.466,1.666-0.605c0.598-0.139,1.218-0.208,1.859-0.208c1.764,0,3.392,0.155,4.883,0.464
		c0.36,2.117,0.541,3.254,0.541,3.413c0.007,0.033-0.007,0.067-0.04,0.104s-0.074,0.068-0.125,0.094
		c-0.05,0.027-0.107,0.05-0.17,0.07c-0.063,0.02-0.122,0.029-0.176,0.029c-0.12,0-0.214-0.023-0.28-0.069
		c-0.026-0.12-0.05-0.222-0.069-0.308c-0.021-0.086-0.06-0.221-0.119-0.402c-0.06-0.183-0.125-0.345-0.194-0.488
		c-0.069-0.143-0.167-0.31-0.294-0.502c-0.125-0.192-0.265-0.361-0.417-0.507s-0.343-0.295-0.572-0.447
		c-0.229-0.152-0.477-0.279-0.746-0.377c-0.269-0.1-0.583-0.181-0.945-0.244c-0.361-0.063-0.751-0.094-1.168-0.094
		c-0.662,0-1.291,0.129-1.889,0.387c-0.599,0.259-1.119,0.609-1.562,1.049s-0.83,0.946-1.161,1.516
		c-0.33,0.57-0.58,1.178-0.749,1.825c-0.168,0.646-0.253,1.291-0.253,1.934c0,0.519,0.04,1.031,0.12,1.539
		c0.079,0.508,0.201,1.005,0.367,1.489c0.166,0.485,0.365,0.939,0.6,1.365c0.235,0.425,0.519,0.817,0.853,1.175
		c0.333,0.359,0.7,0.666,1.096,0.922c0.397,0.256,0.846,0.455,1.349,0.598c0.502,0.143,1.035,0.215,1.596,0.215
		c0.536,0,1.023-0.067,1.463-0.2c0.439-0.133,0.88-0.312,1.324-0.538c0.106-0.054,0.158-0.17,0.158-0.35v-2.333
		c0-0.897-0.036-1.469-0.108-1.715c-0.033-0.106-0.245-0.194-0.635-0.264c-0.39-0.07-0.702-0.105-0.932-0.105
		c-0.046-0.06-0.073-0.17-0.08-0.332c-0.006-0.162,0.021-0.273,0.08-0.332c0.165,0.007,0.45,0.021,0.853,0.045
		c0.403,0.023,0.744,0.041,1.024,0.054c0.28,0.014,0.555,0.021,0.825,0.021s0.537-0.007,0.801-0.021
		c0.263-0.013,0.574-0.03,0.936-0.054c0.361-0.023,0.636-0.038,0.827-0.045c0.053,0.053,0.08,0.155,0.08,0.308
		c0,0.172-0.027,0.291-0.079,0.356c-0.223,0-0.516,0.035-0.881,0.105c-0.366,0.069-0.565,0.157-0.598,0.264
		c-0.072,0.246-0.108,0.817-0.108,1.715v1.646c0,0.14,0.018,0.27,0.05,0.39c0.033,0.119,0.068,0.224,0.104,0.312
		c0.036,0.091,0.055,0.165,0.055,0.225c0,0.046-0.012,0.085-0.035,0.117s-0.065,0.071-0.129,0.117s-0.16,0.102-0.293,0.166
		c-0.276,0.144-0.496,0.254-0.654,0.332c-0.158,0.079-0.408,0.18-0.749,0.303c-0.34,0.124-0.672,0.22-0.997,0.288
		c-0.324,0.068-0.739,0.129-1.244,0.181c-0.506,0.052-1.049,0.078-1.632,0.078c-0.892,0-1.74-0.131-2.543-0.392
		c-0.804-0.262-1.514-0.627-2.133-1.097c-0.618-0.469-1.155-1.017-1.611-1.642c-0.457-0.625-0.804-1.315-1.042-2.073
		C114.12,44.373,114.002,43.59,114.002,42.783z" fill="#2E3192"></path>
	<path d="M132.016,49.529c0.238,0,0.556-0.035,0.952-0.104s0.608-0.157,0.635-0.264
		c0.079-0.251,0.119-0.819,0.119-1.705v-9.69c0-0.886-0.04-1.451-0.119-1.696c-0.026-0.113-0.238-0.204-0.635-0.273
		c-0.396-0.07-0.714-0.104-0.952-0.104c-0.053-0.06-0.079-0.182-0.079-0.367c0-0.013,0-0.023,0-0.029
		c0-0.166,0.026-0.278,0.079-0.337c0.159,0.006,0.444,0.021,0.857,0.044c0.414,0.023,0.76,0.041,1.037,0.055
		c0.277,0.013,0.552,0.02,0.822,0.02c0.212,0,0.438-0.005,0.681-0.015c0.241-0.01,0.453-0.02,0.639-0.03
		c0.186-0.01,0.417-0.023,0.694-0.039c0.277-0.017,0.506-0.028,0.685-0.035c0.053,0.06,0.077,0.182,0.073,0.367
		c-0.002,0.185-0.027,0.307-0.073,0.367c-0.238,0-0.556,0.036-0.952,0.105c-0.396,0.07-0.608,0.161-0.635,0.274
		c-0.079,0.247-0.119,0.815-0.119,1.707v4.053c0,0.014,0.003,0.026,0.01,0.04s0.014,0.021,0.021,0.021l0.02,0.01
		c2.254,0.046,3.458,0.069,3.61,0.069c0.277,0,1.45-0.023,3.52-0.069c0.027-0.026,0.04-0.057,0.04-0.09v-4.033
		c0-0.892-0.036-1.46-0.109-1.707c-0.032-0.113-0.248-0.204-0.645-0.274c-0.396-0.069-0.711-0.105-0.942-0.105
		c-0.053-0.06-0.081-0.182-0.084-0.367s0.024-0.307,0.084-0.367c0.152,0.006,0.436,0.021,0.849,0.044
		c0.413,0.023,0.76,0.041,1.041,0.055c0.28,0.013,0.554,0.02,0.818,0.02c0.212,0,0.439-0.005,0.685-0.015
		c0.244-0.01,0.457-0.02,0.639-0.03c0.183-0.01,0.413-0.023,0.694-0.039c0.281-0.017,0.508-0.028,0.68-0.035
		c0.053,0.053,0.08,0.166,0.08,0.337c0,0.013,0,0.023,0,0.029c0,0.185-0.027,0.307-0.08,0.367c-0.231,0-0.547,0.035-0.947,0.104
		c-0.399,0.069-0.613,0.16-0.64,0.273c-0.079,0.245-0.119,0.81-0.119,1.696v9.69c0,0.886,0.04,1.454,0.119,1.705
		c0.026,0.106,0.24,0.194,0.64,0.264c0.4,0.069,0.716,0.104,0.947,0.104c0.053,0.059,0.08,0.182,0.08,0.366c0,0.014,0,0.023,0,0.029
		c0,0.166-0.027,0.278-0.08,0.338c-0.165-0.007-0.45-0.021-0.854-0.045c-0.402-0.023-0.743-0.041-1.021-0.054
		c-0.277-0.014-0.551-0.021-0.818-0.021s-0.543,0.007-0.823,0.021c-0.281,0.013-0.628,0.03-1.041,0.054s-0.696,0.038-0.849,0.045
		c-0.06-0.06-0.087-0.182-0.084-0.367c0.003-0.185,0.031-0.308,0.084-0.366c0.119,0,0.291-0.014,0.517-0.04
		c0.224-0.027,0.454-0.069,0.688-0.129c0.235-0.061,0.362-0.126,0.382-0.199c0.073-0.251,0.109-0.819,0.109-1.705v-4.552
		c0-0.02-0.003-0.037-0.011-0.05c-0.006-0.013-0.013-0.023-0.02-0.03l-0.01-0.02c-0.185,0-0.704-0.015-1.557-0.044
		c-0.853-0.03-1.508-0.046-1.963-0.046c-2.242,0-3.455,0.047-3.641,0.14l-0.02,0.05v4.552c0,0.886,0.04,1.454,0.119,1.705
		c0.026,0.106,0.238,0.194,0.635,0.264s0.714,0.104,0.952,0.104c0.046,0.059,0.071,0.182,0.073,0.366
		c0.004,0.186-0.021,0.308-0.073,0.367c-0.166-0.007-0.449-0.021-0.853-0.045s-0.744-0.041-1.022-0.054
		c-0.277-0.014-0.552-0.021-0.823-0.021c-0.271,0-0.545,0.007-0.822,0.021c-0.277,0.013-0.623,0.03-1.037,0.054
		c-0.413,0.023-0.698,0.038-0.857,0.045c-0.053-0.054-0.079-0.166-0.079-0.338C131.937,49.727,131.963,49.595,132.016,49.529z" fill="#2E3192"></path>
	<path d="M156.85,46.187c0.073-0.073,0.166-0.137,0.278-0.193c0.112-0.056,0.218-0.084,0.317-0.084
		c0.139,0,0.225,0.068,0.258,0.206c0.026,0.151,0.064,0.309,0.117,0.473s0.129,0.364,0.229,0.601
		c0.102,0.235,0.217,0.46,0.348,0.674c0.13,0.212,0.296,0.428,0.498,0.644c0.202,0.217,0.422,0.405,0.659,0.565
		c0.238,0.161,0.522,0.29,0.851,0.39c0.329,0.098,0.683,0.147,1.061,0.147c0.504,0,0.963-0.106,1.377-0.316
		c0.413-0.211,0.748-0.532,1.003-0.963s0.383-0.937,0.383-1.516c0-0.204-0.017-0.397-0.05-0.578s-0.086-0.347-0.159-0.498
		c-0.072-0.151-0.149-0.29-0.229-0.415s-0.185-0.246-0.317-0.366c-0.133-0.118-0.257-0.222-0.373-0.311s-0.263-0.186-0.441-0.291
		s-0.335-0.193-0.468-0.267c-0.133-0.072-0.302-0.167-0.506-0.281c-0.206-0.115-0.381-0.213-0.527-0.291
		c-0.026-0.014-0.069-0.04-0.127-0.079c-0.333-0.198-0.588-0.35-0.763-0.454c-0.177-0.106-0.422-0.266-0.734-0.479
		s-0.559-0.4-0.738-0.558c-0.179-0.159-0.383-0.359-0.61-0.603c-0.229-0.244-0.402-0.481-0.523-0.712
		c-0.12-0.23-0.225-0.492-0.312-0.786c-0.088-0.292-0.133-0.597-0.133-0.913c0-0.591,0.126-1.145,0.377-1.663
		c0.252-0.517,0.585-0.949,1-1.294s0.891-0.615,1.425-0.811c0.536-0.196,1.088-0.293,1.657-0.293c0.33,0,0.645,0.019,0.943,0.056
		c0.297,0.038,0.543,0.083,0.734,0.134c0.192,0.051,0.469,0.126,0.829,0.226c0.361,0.1,0.684,0.184,0.968,0.252
		c0.1,0.663,0.206,1.744,0.317,3.24c0.014,0.072-0.038,0.134-0.153,0.183c-0.116,0.049-0.223,0.074-0.322,0.074
		c-0.112,0-0.199-0.029-0.258-0.088c-0.026-0.243-0.092-0.503-0.193-0.782c-0.104-0.278-0.249-0.565-0.438-0.86
		c-0.188-0.295-0.404-0.562-0.646-0.801c-0.242-0.239-0.533-0.435-0.874-0.589c-0.342-0.154-0.7-0.231-1.078-0.231
		c-0.259,0-0.502,0.029-0.73,0.084c-0.228,0.055-0.427,0.131-0.596,0.227c-0.169,0.095-0.321,0.208-0.457,0.34
		c-0.137,0.131-0.248,0.273-0.339,0.425c-0.089,0.151-0.163,0.311-0.223,0.478c-0.06,0.168-0.103,0.334-0.13,0.5
		c-0.026,0.165-0.039,0.326-0.039,0.483c0,0.225,0.028,0.44,0.085,0.647c0.056,0.207,0.124,0.39,0.203,0.548
		c0.08,0.157,0.194,0.32,0.343,0.488c0.149,0.168,0.286,0.308,0.413,0.419c0.125,0.112,0.294,0.242,0.506,0.391
		s0.39,0.267,0.531,0.356c0.143,0.089,0.337,0.207,0.582,0.354c0.245,0.149,0.434,0.266,0.565,0.351
		c0.127,0.08,0.329,0.203,0.606,0.371c0.278,0.168,0.502,0.305,0.671,0.41s0.387,0.252,0.654,0.438
		c0.269,0.188,0.486,0.356,0.655,0.504c0.168,0.148,0.353,0.331,0.551,0.549c0.199,0.217,0.354,0.429,0.467,0.636
		c0.112,0.208,0.208,0.443,0.287,0.706c0.079,0.264,0.119,0.534,0.119,0.811c0,0.616-0.136,1.192-0.406,1.727
		c-0.271,0.534-0.631,0.98-1.078,1.339c-0.446,0.358-0.959,0.641-1.538,0.847c-0.579,0.205-1.177,0.308-1.793,0.308
		c-0.357,0-0.743-0.026-1.153-0.079s-0.753-0.107-1.026-0.164c-0.274-0.056-0.619-0.132-1.037-0.228
		c-0.416-0.097-0.708-0.16-0.873-0.193c-0.119-0.602-0.228-1.301-0.327-2.098C156.9,46.862,156.85,46.372,156.85,46.187z" fill="#2E3192"></path>
	<path d="M169.888,42.791c0-0.609,0.063-1.208,0.193-1.797c0.129-0.59,0.315-1.144,0.56-1.663
		c0.245-0.519,0.539-1.01,0.883-1.473c0.344-0.464,0.739-0.879,1.185-1.246c0.447-0.367,0.926-0.683,1.438-0.947
		c0.512-0.265,1.067-0.466,1.667-0.606c0.598-0.139,1.217-0.208,1.859-0.208c1.758,0,3.381,0.155,4.868,0.464
		c0.357,2.118,0.536,3.257,0.536,3.416c0.006,0.033-0.007,0.068-0.04,0.104c-0.033,0.037-0.074,0.068-0.124,0.095
		c-0.05,0.026-0.105,0.05-0.169,0.069c-0.062,0.02-0.12,0.029-0.173,0.029c-0.119,0-0.212-0.023-0.277-0.069
		c-0.026-0.119-0.05-0.223-0.069-0.309c-0.021-0.085-0.06-0.22-0.119-0.402c-0.06-0.182-0.124-0.345-0.193-0.488
		c-0.069-0.142-0.167-0.311-0.293-0.503c-0.125-0.192-0.265-0.361-0.416-0.507c-0.152-0.146-0.342-0.295-0.571-0.448
		c-0.228-0.153-0.475-0.278-0.743-0.378c-0.268-0.1-0.582-0.181-0.942-0.244c-0.36-0.063-0.749-0.094-1.165-0.094
		c-0.661,0-1.291,0.129-1.889,0.388c-0.6,0.259-1.119,0.609-1.562,1.049c-0.443,0.441-0.829,0.948-1.161,1.519
		c-0.33,0.57-0.579,1.179-0.748,1.826c-0.168,0.647-0.253,1.293-0.253,1.937c0,0.73,0.077,1.445,0.233,2.145
		c0.154,0.7,0.396,1.362,0.724,1.986s0.723,1.169,1.186,1.637s1.024,0.839,1.686,1.115c0.661,0.275,1.378,0.413,2.151,0.413
		c1.204,0,2.216-0.369,3.035-1.105c0.694-0.623,1.164-1.516,1.408-2.677c0.04-0.007,0.08-0.01,0.12-0.01
		c0.218,0,0.423,0.062,0.613,0.188c0,0.297-0.097,0.892-0.291,1.783c-0.196,0.893-0.366,1.4-0.512,1.526
		c-1.223,0.685-2.873,1.027-4.948,1.027c-0.893,0-1.74-0.131-2.544-0.392s-1.514-0.626-2.132-1.095
		c-0.618-0.47-1.156-1.016-1.611-1.64c-0.457-0.625-0.804-1.314-1.042-2.071S169.888,43.597,169.888,42.791z" fill="#2E3192"></path>
	<path d="M186.842,49.529c0.237,0,0.555-0.035,0.951-0.104c0.397-0.069,0.609-0.157,0.635-0.264
		c0.079-0.251,0.119-0.819,0.119-1.705v-9.69c0-0.886-0.04-1.451-0.119-1.696c-0.025-0.113-0.237-0.204-0.635-0.273
		c-0.396-0.07-0.714-0.104-0.951-0.104c-0.054-0.06-0.079-0.182-0.079-0.367c0-0.013,0-0.023,0-0.029
		c0-0.166,0.025-0.278,0.079-0.337c0.158,0.006,0.444,0.021,0.856,0.044c0.414,0.023,0.76,0.041,1.037,0.055
		c0.278,0.013,0.552,0.02,0.823,0.02c0.211,0,0.438-0.005,0.68-0.015c0.241-0.01,0.454-0.02,0.639-0.03
		c0.186-0.01,0.417-0.023,0.694-0.039c0.278-0.017,0.506-0.028,0.685-0.035c0.053,0.06,0.078,0.182,0.074,0.367
		c-0.003,0.185-0.027,0.307-0.074,0.367c-0.237,0-0.556,0.036-0.952,0.105c-0.396,0.07-0.608,0.161-0.635,0.274
		c-0.079,0.247-0.118,0.815-0.118,1.707v4.053c0,0.014,0.003,0.026,0.01,0.04c0.006,0.014,0.014,0.021,0.02,0.021l0.02,0.01
		c2.255,0.046,3.458,0.069,3.61,0.069c0.277,0,1.451-0.023,3.521-0.069c0.026-0.026,0.04-0.057,0.04-0.09v-4.033
		c0-0.892-0.037-1.46-0.109-1.707c-0.033-0.113-0.249-0.204-0.645-0.274c-0.397-0.069-0.711-0.105-0.942-0.105
		c-0.053-0.06-0.081-0.182-0.084-0.367c-0.004-0.185,0.023-0.307,0.084-0.367c0.151,0.006,0.435,0.021,0.848,0.044
		c0.413,0.023,0.761,0.041,1.042,0.055c0.28,0.013,0.554,0.02,0.817,0.02c0.212,0,0.44-0.005,0.685-0.015
		c0.244-0.01,0.458-0.02,0.64-0.03c0.182-0.01,0.413-0.023,0.694-0.039c0.281-0.017,0.507-0.028,0.679-0.035
		c0.054,0.053,0.08,0.166,0.08,0.337c0,0.013,0,0.023,0,0.029c0,0.185-0.026,0.307-0.08,0.367c-0.231,0-0.547,0.035-0.947,0.104
		c-0.399,0.069-0.613,0.16-0.639,0.273c-0.079,0.245-0.119,0.81-0.119,1.696v9.69c0,0.886,0.04,1.454,0.119,1.705
		c0.025,0.106,0.239,0.194,0.639,0.264c0.4,0.069,0.716,0.104,0.947,0.104c0.054,0.059,0.08,0.182,0.08,0.366
		c0,0.014,0,0.023,0,0.029c0,0.166-0.026,0.278-0.08,0.338c-0.165-0.007-0.449-0.021-0.853-0.045s-0.743-0.041-1.021-0.054
		c-0.277-0.014-0.551-0.021-0.817-0.021c-0.269,0-0.543,0.007-0.823,0.021c-0.281,0.013-0.629,0.03-1.042,0.054
		s-0.696,0.038-0.848,0.045c-0.061-0.06-0.088-0.182-0.084-0.367c0.003-0.185,0.031-0.308,0.084-0.366
		c0.119,0,0.291-0.014,0.516-0.04c0.225-0.027,0.454-0.069,0.689-0.129c0.234-0.061,0.362-0.126,0.382-0.199
		c0.072-0.251,0.109-0.819,0.109-1.705v-4.552c0-0.02-0.004-0.037-0.011-0.05c-0.006-0.013-0.014-0.023-0.02-0.03l-0.01-0.02
		c-0.186,0-0.704-0.015-1.557-0.044c-0.854-0.03-1.508-0.046-1.964-0.046c-2.241,0-3.455,0.047-3.64,0.14l-0.02,0.05v4.552
		c0,0.886,0.039,1.454,0.118,1.705c0.026,0.106,0.238,0.194,0.635,0.264s0.715,0.104,0.952,0.104
		c0.047,0.059,0.071,0.182,0.074,0.366c0.004,0.186-0.021,0.308-0.074,0.367c-0.165-0.007-0.449-0.021-0.853-0.045
		s-0.744-0.041-1.021-0.054c-0.278-0.014-0.552-0.021-0.823-0.021s-0.545,0.007-0.823,0.021c-0.277,0.013-0.623,0.03-1.037,0.054
		c-0.412,0.023-0.698,0.038-0.856,0.045c-0.054-0.054-0.079-0.166-0.079-0.338C186.763,49.727,186.788,49.595,186.842,49.529z" fill="#2E3192"></path>
	<path d="M204.985,42.611c0-1.047,0.2-2.051,0.601-3.013c0.4-0.96,0.935-1.788,1.603-2.482
		c0.669-0.694,1.463-1.245,2.382-1.654c0.92-0.408,1.876-0.612,2.868-0.612c0.575,0,1.138,0.063,1.689,0.188
		c0.552,0.125,1.075,0.31,1.571,0.553c0.495,0.244,0.959,0.535,1.392,0.874c0.433,0.339,0.822,0.73,1.17,1.175
		c0.347,0.444,0.646,0.923,0.897,1.437c0.251,0.513,0.444,1.071,0.579,1.674c0.136,0.603,0.203,1.223,0.203,1.861
		c0,1.057-0.203,2.068-0.609,3.038s-0.946,1.802-1.62,2.495c-0.674,0.694-1.472,1.247-2.394,1.659
		c-0.922,0.411-1.881,0.617-2.879,0.617c-0.999,0-1.955-0.194-2.868-0.582c-0.913-0.389-1.707-0.921-2.382-1.6
		c-0.675-0.678-1.21-1.505-1.607-2.485C205.184,44.775,204.985,43.728,204.985,42.611z M207.267,42.105
		c0,0.721,0.078,1.438,0.232,2.148c0.156,0.712,0.389,1.39,0.699,2.034c0.311,0.646,0.682,1.214,1.114,1.707
		s0.951,0.885,1.556,1.176c0.604,0.291,1.25,0.438,1.938,0.438c0.666,0,1.276-0.128,1.827-0.382
		c0.552-0.256,1.011-0.598,1.378-1.027c0.365-0.431,0.676-0.931,0.931-1.499c0.254-0.568,0.438-1.16,0.55-1.771
		c0.112-0.612,0.169-1.239,0.169-1.881c0-0.721-0.078-1.436-0.233-2.144c-0.155-0.709-0.39-1.382-0.703-2.02
		c-0.314-0.638-0.689-1.203-1.124-1.692c-0.437-0.489-0.957-0.88-1.562-1.171c-0.604-0.291-1.25-0.436-1.937-0.436
		c-0.667,0-1.275,0.129-1.823,0.387c-0.549,0.258-1.005,0.598-1.372,1.022c-0.366,0.423-0.676,0.919-0.927,1.488
		c-0.251,0.569-0.433,1.156-0.544,1.761C207.323,40.849,207.267,41.47,207.267,42.105z" fill="#2E3192"></path>
	<path d="M223.715,42.611c0-1.047,0.201-2.051,0.602-3.013c0.399-0.96,0.934-1.788,1.602-2.482
		c0.669-0.694,1.463-1.245,2.382-1.654c0.92-0.408,1.876-0.612,2.868-0.612c0.575,0,1.138,0.063,1.689,0.188
		c0.552,0.125,1.075,0.31,1.571,0.553c0.496,0.244,0.96,0.535,1.393,0.874c0.433,0.339,0.822,0.73,1.169,1.175
		c0.348,0.444,0.646,0.923,0.897,1.437c0.251,0.513,0.444,1.071,0.579,1.674c0.136,0.603,0.203,1.223,0.203,1.861
		c0,1.057-0.203,2.068-0.609,3.038s-0.946,1.802-1.62,2.495c-0.674,0.694-1.472,1.247-2.394,1.659
		c-0.921,0.411-1.881,0.617-2.879,0.617s-1.954-0.194-2.868-0.582c-0.913-0.389-1.707-0.921-2.382-1.6
		c-0.675-0.678-1.21-1.505-1.607-2.485C223.914,44.775,223.715,43.728,223.715,42.611z M225.997,42.105
		c0,0.721,0.077,1.438,0.231,2.148c0.156,0.712,0.389,1.39,0.699,2.034c0.311,0.646,0.682,1.214,1.114,1.707
		s0.952,0.885,1.556,1.176s1.25,0.438,1.938,0.438c0.666,0,1.276-0.128,1.827-0.382c0.552-0.256,1.011-0.598,1.378-1.027
		c0.366-0.431,0.677-0.931,0.931-1.499s0.438-1.16,0.551-1.771c0.112-0.612,0.168-1.239,0.168-1.881
		c0-0.721-0.077-1.436-0.233-2.144c-0.154-0.709-0.39-1.382-0.703-2.02c-0.314-0.638-0.688-1.203-1.124-1.692
		c-0.437-0.489-0.957-0.88-1.562-1.171c-0.604-0.291-1.25-0.436-1.937-0.436c-0.667,0-1.274,0.129-1.823,0.387
		c-0.548,0.258-1.005,0.598-1.371,1.022c-0.367,0.423-0.676,0.919-0.927,1.488c-0.251,0.569-0.433,1.156-0.545,1.761
		C226.053,40.849,225.997,41.47,225.997,42.105z" fill="#2E3192"></path>
	<path d="M242.167,49.599c0.238,0,0.556-0.035,0.952-0.104s0.608-0.157,0.635-0.264
		c0.079-0.251,0.119-0.819,0.119-1.705v-9.829c0-0.886-0.04-1.451-0.119-1.696c-0.026-0.113-0.238-0.204-0.635-0.273
		c-0.396-0.069-0.714-0.104-0.952-0.104c-0.053-0.06-0.079-0.168-0.079-0.327c0-0.007,0-0.017,0-0.03
		c0-0.145,0.026-0.248,0.079-0.307c0.159,0.006,0.444,0.021,0.857,0.044c0.414,0.023,0.76,0.041,1.037,0.055
		c0.277,0.013,0.552,0.02,0.822,0.02c0.212,0,0.438-0.005,0.681-0.015c0.241-0.01,0.453-0.02,0.639-0.03
		c0.186-0.01,0.417-0.023,0.694-0.039c0.277-0.017,0.506-0.028,0.685-0.035c0.053,0.06,0.077,0.17,0.074,0.332
		s-0.028,0.272-0.074,0.332c-0.238,0-0.556,0.035-0.952,0.104c-0.396,0.07-0.608,0.161-0.635,0.272
		c-0.079,0.245-0.119,0.809-0.119,1.694v9.815c0,0.151,0,0.286,0,0.405s0.005,0.282,0.015,0.491c0.01,0.207,0.025,0.379,0.045,0.514
		c0.021,0.136,0.046,0.217,0.08,0.243c0.139,0.105,0.309,0.17,0.51,0.193c0.202,0.023,0.577,0.031,1.126,0.024h1.31
		c0.482,0,0.977-0.051,1.481-0.153c0.506-0.103,0.908-0.256,1.205-0.46c0.628-0.423,1.111-1.196,1.448-2.318
		c0.026-0.092,0.136-0.138,0.327-0.138c0.073,0,0.15,0.006,0.233,0.02s0.153,0.031,0.214,0.054c0.059,0.023,0.102,0.045,0.128,0.064
		c-0.072,0.198-0.188,0.518-0.348,0.956c-0.158,0.438-0.287,0.794-0.386,1.064c-0.1,0.271-0.2,0.582-0.303,0.934
		s-0.17,0.646-0.203,0.88c-0.794,0-2.033-0.015-3.719-0.045c-1.686-0.029-3.064-0.044-4.136-0.044c-0.37,0-0.848,0.012-1.433,0.034
		c-0.586,0.023-1.021,0.035-1.305,0.035c-0.053-0.054-0.079-0.155-0.079-0.308C242.088,49.783,242.114,49.664,242.167,49.599z" fill="#2E3192"></path>
</g>
<g>
	<path d="M90.549,67.266c0.423,0.22,0.831,0.443,1.226,0.671c0.394,0.227,0.608,0.36,0.646,0.402
		c0.036,0.041,0.054,0.082,0.054,0.124c0,0.124-0.123,0.205-0.372,0.247c-0.131,0.027-0.24,0.079-0.328,0.155
		c-0.087,0.075-0.205,0.236-0.351,0.484c-0.7,1.211-1.794,2.504-3.282,3.88l-0.351-0.269C89.032,71.173,89.95,69.273,90.549,67.266z
		 M94.16,63.076c0.555-1.541,0.934-2.869,1.138-3.982c1.021,0.44,1.63,0.715,1.828,0.825c0.197,0.11,0.295,0.2,0.295,0.268
		c0,0.07-0.121,0.124-0.361,0.166c-0.241,0.041-0.435,0.189-0.58,0.443c-0.146,0.255-0.664,1.015-1.554,2.28h1.444l0.897-0.97
		c0.132-0.138,0.252-0.206,0.362-0.206c0.109,0,0.452,0.244,1.029,0.732c0.575,0.488,0.864,0.791,0.864,0.908
		s-0.168,0.175-0.503,0.175h-4.377v2.477h1.226l0.635-0.971c0.101-0.164,0.2-0.247,0.295-0.247c0.095,0,0.321,0.121,0.679,0.361
		c0.357,0.241,0.67,0.475,0.941,0.702c0.27,0.227,0.405,0.396,0.405,0.505c0,0.193-0.183,0.289-0.547,0.289h-3.633v4.664
		c0,0.798-0.059,1.348-0.174,1.65c-0.117,0.303-0.435,0.595-0.953,0.878c-0.518,0.281-0.853,0.423-1.006,0.423
		c-0.153,0-0.266-0.11-0.339-0.331c-0.117-0.412-0.281-0.708-0.493-0.887c-0.212-0.18-0.689-0.427-1.433-0.743v-0.372
		c1.051,0.18,1.729,0.27,2.035,0.27c0.306,0,0.496-0.056,0.569-0.166c0.072-0.11,0.108-0.323,0.108-0.639v-4.747h-2.844
		c-0.394,0-0.701,0.048-0.919,0.145l-0.395-0.887c0.307,0.068,0.671,0.103,1.094,0.103h3.063v-2.477h-3.151
		c-0.394,0-0.7,0.048-0.919,0.145l-0.394-0.887c0.306,0.068,0.67,0.103,1.094,0.103H94.16z M93.416,58.33
		c-0.161-0.151-0.278-0.444-0.351-0.877c-0.073-0.434-0.208-0.812-0.405-1.136c-0.197-0.323-0.448-0.656-0.755-1.001l0.219-0.268
		c0.89,0.303,1.586,0.653,2.09,1.053c0.503,0.398,0.755,0.742,0.755,1.031c0,0.372-0.212,0.771-0.635,1.197h1.444l0.723-0.971
		c0.116-0.15,0.222-0.227,0.317-0.227c0.095,0,0.244,0.069,0.448,0.206c0.205,0.138,0.474,0.345,0.811,0.619
		c0.335,0.276,0.543,0.461,0.624,0.558c0.08,0.097,0.12,0.18,0.12,0.247c0,0.138-0.153,0.207-0.459,0.207h-8.185
		c-0.394,0-0.7,0.048-0.919,0.145l-0.395-0.888c0.307,0.069,0.671,0.104,1.094,0.104H93.416z M90.746,59.217
		c0.86,0.565,1.437,0.995,1.728,1.29c0.292,0.296,0.438,0.596,0.438,0.897c0,0.304-0.102,0.627-0.307,0.971
		c-0.205,0.343-0.39,0.516-0.558,0.516s-0.281-0.049-0.339-0.145c-0.059-0.096-0.128-0.371-0.208-0.825
		c-0.08-0.454-0.193-0.86-0.339-1.218c-0.146-0.357-0.394-0.771-0.745-1.238L90.746,59.217z M95.298,67.431
		c0.788,0.44,1.474,0.877,2.057,1.311c0.583,0.433,0.875,0.815,0.875,1.146c0,0.329-0.128,0.681-0.383,1.052
		c-0.255,0.372-0.481,0.558-0.679,0.558c-0.196,0-0.346-0.192-0.448-0.578c-0.335-1.225-0.904-2.283-1.707-3.178L95.298,67.431z
		 M101.886,58.268c1.05-0.344,2.574-1.1,4.574-2.27c1.065,1.267,1.598,1.988,1.598,2.167c0,0.082-0.047,0.123-0.143,0.123
		c-0.095,0-0.237-0.033-0.427-0.104c-0.19-0.067-0.376-0.103-0.558-0.103c-0.183,0-0.89,0.124-2.123,0.372
		c-1.233,0.247-2.229,0.398-2.987,0.453l-0.153,4.004h3.721l0.984-1.156c0.132-0.15,0.233-0.227,0.306-0.227
		c0.117,0,0.496,0.289,1.138,0.867s0.963,0.949,0.963,1.114c0,0.097-0.146,0.144-0.438,0.144h-2.779v8.256
		c0,0.673,0.006,1.141,0.022,1.402l0.021,0.744c0,0.109-0.054,0.202-0.164,0.277c-0.11,0.076-0.369,0.187-0.777,0.33
		c-0.408,0.145-0.667,0.218-0.776,0.218c-0.11,0-0.165-0.09-0.165-0.27V63.653h-2.101c-0.102,2.216-0.208,3.685-0.317,4.407
		c-0.109,0.722-0.303,1.413-0.58,2.073c-0.278,0.66-0.704,1.328-1.281,2.002c-0.576,0.674-1.44,1.499-2.593,2.476l-0.438-0.351
		c0.89-0.894,1.558-1.712,2.002-2.455s0.769-1.592,0.974-2.549c0.205-0.956,0.34-1.991,0.405-3.106
		c0.065-1.113,0.099-2.586,0.099-4.416c0-1.829-0.015-3.28-0.044-4.354C100.536,57.615,101.214,57.91,101.886,58.268z" fill="#2E3192"></path>
	<path d="M117.424,60.868c-0.146,4.031-0.646,6.985-1.499,8.863c-0.854,1.878-2.222,3.505-4.104,4.88l-0.306-0.309
		c1.458-1.541,2.469-3.306,3.031-5.293c0.562-1.988,0.93-4.702,1.105-8.142h-2.517c-0.38,0-0.657,0.055-0.833,0.165l-0.35-0.929
		c0.307,0.097,0.635,0.145,0.985,0.145h2.757c0.029-0.784,0.044-1.585,0.044-2.404c0-0.818-0.022-1.551-0.065-2.197
		c1.881,0.468,2.823,0.784,2.823,0.949c0,0.083-0.146,0.199-0.438,0.351c-0.145,0.083-0.251,0.312-0.317,0.691
		c-0.066,0.378-0.157,1.248-0.273,2.61h2.319l0.394-0.66c0.117-0.192,0.223-0.289,0.318-0.289c0.095,0,0.335,0.113,0.722,0.341
		c0.387,0.227,0.701,0.42,0.942,0.577c0.24,0.158,0.36,0.282,0.36,0.372s-0.262,0.237-0.787,0.443
		c-0.03,1.857-0.088,3.77-0.175,5.736c-0.117,2.628-0.219,4.245-0.307,4.85c-0.087,0.605-0.28,1.077-0.579,1.414
		c-0.3,0.337-0.814,0.726-1.544,1.166c-0.189,0.11-0.328,0.165-0.416,0.165c-0.131,0-0.218-0.138-0.262-0.412
		c-0.102-0.468-0.292-0.823-0.569-1.063c-0.278-0.241-0.825-0.505-1.642-0.795l0.066-0.392c0.992,0.207,1.67,0.31,2.035,0.31
		c0.364,0,0.627-0.072,0.787-0.217c0.161-0.145,0.271-0.409,0.329-0.794c0.058-0.385,0.138-1.665,0.24-3.839
		c0.102-2.174,0.168-4.271,0.197-6.294H117.424z M125.564,59.444h3.502l0.504-0.743c0.087-0.137,0.171-0.206,0.251-0.206
		s0.448,0.195,1.105,0.588c0.656,0.393,0.984,0.649,0.984,0.773s-0.276,0.29-0.831,0.496v11.061l0.044,1.837
		c0,0.165-0.055,0.285-0.165,0.36c-0.109,0.076-0.38,0.183-0.809,0.321c-0.432,0.137-0.693,0.205-0.789,0.205
		c-0.095,0-0.142-0.089-0.142-0.268v-2.167h-3.983v1.755c0,0.164-0.055,0.281-0.165,0.351c-0.11,0.068-0.375,0.168-0.798,0.299
		c-0.424,0.131-0.686,0.196-0.789,0.196c-0.102,0-0.146-0.11-0.131-0.33c0.059-0.605,0.087-1.253,0.087-1.939V60.146
		c0-0.578-0.021-1.163-0.065-1.755C124.266,58.75,124.996,59.101,125.564,59.444z M129.22,71.042V60.104h-3.983v10.938H129.22z" fill="#2E3192"></path>
	<path d="M147.735,59.361c0-2.091-0.029-3.356-0.088-3.797c1.853,0.454,2.779,0.818,2.779,1.094
		c0,0.179-0.292,0.365-0.876,0.557v2.146h2.604l0.504-0.681c0.116-0.165,0.219-0.248,0.307-0.248c0.188,0,0.609,0.278,1.258,0.836
		c0.649,0.558,0.975,0.946,0.975,1.166c0,0.083-0.03,0.135-0.088,0.155c-0.059,0.021-0.26,0.031-0.602,0.031
		c-0.344,0-0.771,0.175-1.281,0.526c-0.511,0.351-1.146,0.891-1.903,1.619l-0.394-0.247c0.569-0.963,0.992-1.788,1.269-2.477h-2.648
		v4.024h1.313l0.438-0.495c0.132-0.139,0.267-0.207,0.405-0.207s0.448,0.203,0.931,0.608c0.481,0.406,0.722,0.664,0.722,0.773
		c0,0.11-0.095,0.19-0.284,0.238s-0.332,0.135-0.428,0.258c-0.095,0.124-0.2,0.379-0.316,0.764c-0.525,1.72-1.284,3.109-2.276,4.168
		c1.284,1.114,3.071,1.995,5.361,2.642v0.434c-0.32-0.027-0.646-0.041-0.974-0.041c-0.327,0-0.638,0.059-0.93,0.175
		c-0.292,0.117-0.605,0.348-0.94,0.691c-0.073,0.068-0.146,0.104-0.22,0.104c-0.189,0-0.726-0.357-1.608-1.073
		c-0.883-0.715-1.528-1.327-1.937-1.837c-1.562,1.184-3.947,2.271-7.157,3.262l-0.262-0.394c3.137-1.348,5.347-2.641,6.631-3.879
		c-0.948-1.444-1.481-3.261-1.598-5.448h-1.226c-0.087,2.711-0.544,4.72-1.368,6.026s-2.491,2.621-5,3.941l-0.241-0.393
		c1.444-1.018,2.502-2.012,3.173-2.981c0.672-0.97,1.131-2.122,1.38-3.457l-4.334,1.961c-0.934,0.412-1.499,0.695-1.696,0.846
		c-0.197,0.151-0.336,0.228-0.415,0.228c-0.081,0-0.19-0.086-0.329-0.259c-0.139-0.171-0.5-0.726-1.083-1.66
		c1.007-0.138,2.101-0.338,3.282-0.599v-5.82h-1.771c-0.395,0-0.701,0.049-0.92,0.145l-0.394-0.929
		c0.307,0.069,0.671,0.104,1.094,0.104h1.991v-4.169c0-0.715-0.014-1.341-0.043-1.878c1.838,0.51,2.758,0.875,2.758,1.094
		c0,0.124-0.278,0.296-0.832,0.517v4.437h0.548l0.765-0.866c0.117-0.138,0.227-0.207,0.329-0.207c0.102,0,0.35,0.224,0.744,0.671
		c0.394,0.447,0.591,0.739,0.591,0.877s-0.117,0.206-0.35,0.206h-2.627v5.346l2.801-0.723c0.19-1.431,0.285-3.618,0.285-6.562
		c0-0.784-0.007-1.562-0.021-2.332c0.714,0.179,1.4,0.509,2.057,0.99H147.735z M147.735,64.067v-4.024h-2.32l-0.196,4.024H147.735z
		 M149.048,69.143c0.904-1.141,1.539-2.585,1.904-4.333h-3.852C147.553,66.612,148.202,68.057,149.048,69.143z" fill="#2E3192"></path>
	<path d="M158.743,60.477c1.108,0.371,1.98,0.736,2.615,1.094c0.634,0.357,0.952,0.731,0.952,1.124
		s-0.143,0.768-0.427,1.125c-0.285,0.358-0.533,0.536-0.744,0.536c-0.212,0-0.435-0.281-0.668-0.846
		c-0.364-0.936-1.014-1.829-1.947-2.683L158.743,60.477z M165.439,59.506l-2.101,6.067c-0.365,1.06-0.609,1.882-0.733,2.467
		c-0.124,0.584-0.186,1.168-0.186,1.753s0.047,1.201,0.142,1.847c0.095,0.647,0.143,1.087,0.143,1.321
		c0,0.963-0.314,1.445-0.94,1.445c-0.468,0-0.848-0.148-1.139-0.444c-0.292-0.296-0.438-0.657-0.438-1.083
		c0-0.152,0.021-0.297,0.065-0.434c0.292-1.004,0.438-1.953,0.438-2.849c0-0.467-0.124-0.812-0.371-1.031
		c-0.249-0.22-0.811-0.434-1.686-0.64l0.044-0.412c0.467,0.027,0.908,0.041,1.323,0.041c0.416,0,0.756-0.083,1.018-0.248
		c0.264-0.165,0.519-0.516,0.767-1.053l3.217-6.913L165.439,59.506z M160.822,55.998c1.444,0.646,2.382,1.111,2.812,1.393
		c0.431,0.283,0.646,0.599,0.646,0.949s-0.125,0.675-0.372,0.97c-0.249,0.297-0.452,0.444-0.613,0.444
		c-0.16,0-0.277-0.037-0.35-0.113c-0.074-0.076-0.183-0.259-0.329-0.547c-0.496-1.06-1.167-1.968-2.013-2.725L160.822,55.998z
		 M169.379,58.722h5.909l1.007-1.176c0.116-0.138,0.233-0.207,0.351-0.207c0.116,0,0.514,0.262,1.192,0.785
		c0.678,0.522,1.018,0.853,1.018,0.99c0,0.137-0.096,0.206-0.284,0.206h-9.586c-0.496,0.66-0.904,1.17-1.227,1.527
		c0.249,0.097,0.577,0.269,0.986,0.516h5.23l0.591-0.66c0.102-0.138,0.207-0.206,0.316-0.206c0.11,0,0.481,0.183,1.117,0.547
		c0.635,0.364,0.951,0.605,0.951,0.722c0,0.117-0.277,0.348-0.831,0.691c-0.03,1.486-0.059,2.58-0.088,3.281h0.591l0.832-0.97
		c0.131-0.151,0.255-0.227,0.371-0.227c0.117,0,0.438,0.243,0.964,0.731c0.525,0.489,0.787,0.799,0.787,0.929
		c0,0.131-0.116,0.196-0.35,0.196h-3.217c-0.044,1.376-0.103,2.703-0.176,3.983l0.832-0.888c0.131-0.151,0.251-0.228,0.361-0.228
		c0.109,0,0.284,0.11,0.525,0.33c0.24,0.221,0.524,0.473,0.853,0.754c0.329,0.282,0.492,0.468,0.492,0.558
		c0,0.089-0.174,0.134-0.524,0.134h-2.583c0,0.991-0.059,1.685-0.174,2.084c-0.117,0.398-0.329,0.726-0.636,0.98
		s-0.803,0.491-1.487,0.712c-0.687,0.22-1.125,0.33-1.313,0.33c-0.146,0-0.256-0.131-0.328-0.392
		c-0.088-0.33-0.193-0.592-0.318-0.784c-0.124-0.193-0.35-0.383-0.678-0.567c-0.328-0.187-0.836-0.396-1.521-0.63l0.132-0.434
		c1.343,0.261,2.272,0.393,2.79,0.393c0.519,0,0.879-0.094,1.084-0.278c0.203-0.187,0.335-0.657,0.394-1.414h-6.5l-0.351,0.413
		c-0.102,0.124-0.189,0.185-0.262,0.185c-0.073,0-0.292-0.12-0.657-0.36s-0.81-0.574-1.335-1.001
		c0.452-0.289,0.74-0.513,0.865-0.671c0.123-0.158,0.207-0.415,0.251-0.773l0.351-2.436h-1.248c-0.364,0-0.679,0.035-0.94,0.104
		l-0.264-0.847c0.234,0.056,0.577,0.083,1.029,0.083h1.51l0.503-3.776c-0.583,0.522-1.305,1.121-2.166,1.795l-0.24-0.288
		c1.006-1.252,1.823-2.411,2.45-3.478c0.628-1.066,1.313-2.624,2.059-4.675c0.699,0.193,1.269,0.372,1.706,0.537
		s0.697,0.272,0.777,0.32c0.079,0.048,0.12,0.1,0.12,0.154c0,0.097-0.109,0.162-0.328,0.196s-0.376,0.1-0.471,0.195
		c-0.095,0.097-0.251,0.338-0.471,0.723L169.379,58.722z M174.105,66.398h-6.192l-0.548,3.963h6.457
		C173.953,69.137,174.048,67.815,174.105,66.398z M168,65.738h6.128c0.059-1.004,0.088-2.242,0.088-3.714h-5.712L168,65.738z
		 M169.356,66.585c0.804,0.344,1.438,0.67,1.905,0.98c0.467,0.309,0.699,0.643,0.699,1c0,0.358-0.117,0.685-0.35,0.98
		c-0.234,0.296-0.46,0.443-0.679,0.443c-0.35,0-0.562-0.31-0.634-0.928c-0.088-0.826-0.446-1.562-1.072-2.209L169.356,66.585z
		 M169.642,62.229c0.802,0.317,1.467,0.623,1.991,0.919c0.525,0.296,0.789,0.596,0.789,0.898c0,0.302-0.084,0.612-0.253,0.928
		c-0.168,0.316-0.448,0.475-0.842,0.475c-0.248,0-0.431-0.213-0.547-0.64c-0.19-0.784-0.635-1.541-1.336-2.27L169.642,62.229z" fill="#2E3192"></path>
	<path d="M191.854,69.824h-4.836c-0.395,0-0.7,0.048-0.92,0.145l-0.438-0.97c0.307,0.069,0.672,0.103,1.095,0.103
		h5.099v-2.373h-4.442c-1.284,1.748-2.859,3.261-4.727,4.54l-0.352-0.288c2.219-2.463,3.626-4.76,4.225-6.893
		c1.751,0.274,2.626,0.536,2.626,0.784c0,0.109-0.108,0.199-0.328,0.268c-0.219,0.069-0.372,0.141-0.459,0.217
		c-0.088,0.076-0.184,0.193-0.285,0.351c-0.102,0.158-0.167,0.259-0.196,0.3h3.938c0-1.582-0.015-2.47-0.044-2.662
		c0.759,0.11,1.401,0.244,1.927,0.402s0.787,0.292,0.787,0.401c0,0.11-0.211,0.256-0.634,0.435v1.424h3.677l0.875-1.156
		c0.189-0.261,0.36-0.392,0.515-0.392c0.153,0,0.565,0.306,1.236,0.918s1.007,0.991,1.007,1.136c0,0.144-0.19,0.216-0.569,0.216
		h-6.74v2.373h2.494l0.876-1.052c0.219-0.248,0.408-0.372,0.568-0.372c0.161,0,0.573,0.289,1.237,0.867
		c0.663,0.577,0.995,0.949,0.995,1.114c0,0.11-0.204,0.165-0.612,0.165h-5.559v2.807h5.055l0.81-1.176
		c0.176-0.248,0.348-0.372,0.515-0.372c0.168,0,0.364,0.09,0.591,0.269c0.227,0.178,0.591,0.499,1.095,0.959
		c0.503,0.461,0.755,0.754,0.755,0.877c0,0.124-0.189,0.187-0.569,0.187h-18.339c-0.395,0-0.701,0.048-0.92,0.145l-0.394-0.99
		c0.307,0.067,0.671,0.103,1.094,0.103h8.272V69.824z M187.85,56.885h9.171l0.547-0.742c0.116-0.165,0.226-0.248,0.328-0.248
		c0.145,0,0.536,0.214,1.171,0.64c0.634,0.427,0.952,0.709,0.952,0.847c0,0.11-0.241,0.262-0.723,0.453v3.612
		c0,0.398,0.007,0.825,0.021,1.279l0.044,0.64c0,0.097-0.025,0.176-0.077,0.237c-0.051,0.062-0.193,0.152-0.426,0.269
		c-0.234,0.117-0.511,0.217-0.832,0.299s-0.536,0.124-0.646,0.124s-0.164-0.055-0.164-0.165v-1.094h-9.586
		c0,0.193-0.019,0.323-0.054,0.392c-0.038,0.069-0.154,0.155-0.352,0.258c-0.196,0.104-0.463,0.203-0.798,0.3
		c-0.336,0.097-0.559,0.145-0.668,0.145s-0.157-0.068-0.143-0.206c0.073-0.674,0.109-1.355,0.109-2.044v-4.312
		c0-0.646-0.029-1.238-0.087-1.775C186.413,56.108,187.149,56.473,187.85,56.885z M197.217,59.63v-2.063h-9.586v2.063H197.217z
		 M197.217,62.396v-2.085h-9.586v2.085H197.217z" fill="#2E3192"></path>
	<path d="M209.561,60.084h5.252v-2.786c0-0.715-0.015-1.327-0.043-1.837c1.094,0.344,1.863,0.596,2.309,0.753
		c0.444,0.159,0.668,0.304,0.668,0.435s-0.3,0.306-0.897,0.526v2.909h5.559l0.569-1.011c0.087-0.151,0.182-0.228,0.283-0.228
		c0.146,0,0.592,0.203,1.336,0.609c0.743,0.405,1.116,0.685,1.116,0.835c0,0.151-0.365,0.386-1.095,0.702v5.489
		c0,0.206,0.008,0.398,0.022,0.578l0.044,0.433c0,0.097-0.073,0.186-0.22,0.269c-0.146,0.082-0.423,0.176-0.831,0.279
		c-0.409,0.103-0.708,0.153-0.897,0.153c-0.087,0-0.131-0.067-0.131-0.205v-1.095h-5.756v4.644c0,0.454,0.014,0.936,0.044,1.445
		l0.021,0.701c0,0.109-0.051,0.199-0.152,0.269c-0.103,0.067-0.42,0.182-0.951,0.34c-0.534,0.158-0.844,0.238-0.932,0.238
		c-0.086,0-0.13-0.11-0.13-0.331l0.044-0.805c0.014-0.551,0.021-1.17,0.021-1.857v-4.644h-5.689v0.888
		c0,0.097-0.059,0.186-0.175,0.269c-0.117,0.082-0.42,0.199-0.909,0.351c-0.488,0.151-0.787,0.227-0.896,0.227
		c-0.11,0-0.157-0.068-0.143-0.206c0.073-0.468,0.109-0.983,0.109-1.548v-6.231c0-0.578-0.022-1.163-0.065-1.755
		C208.094,59.272,208.934,59.671,209.561,60.084z M214.812,60.682h-5.689v5.613h5.689V60.682z M222.604,66.295v-5.613h-5.756v5.613
		H222.604z" fill="#2E3192"></path>
	<path d="M241.973,60.848c0.772-1.32,1.531-3.055,2.275-5.2c0.481,0.22,0.952,0.471,1.412,0.753
		c0.459,0.282,0.747,0.468,0.864,0.558c0.117,0.089,0.175,0.172,0.175,0.247s-0.102,0.124-0.307,0.145
		c-0.204,0.021-0.375,0.083-0.514,0.186c-0.14,0.104-0.464,0.434-0.975,0.991c-0.51,0.557-1.188,1.33-2.035,2.321h3.567l0.591-0.743
		c0.103-0.138,0.204-0.206,0.307-0.206c0.102,0,0.288,0.093,0.558,0.278c0.271,0.186,0.555,0.402,0.854,0.65
		c0.299,0.248,0.506,0.433,0.624,0.557c0.115,0.124,0.174,0.234,0.174,0.33c0,0.097-0.04,0.179-0.12,0.248
		c-0.081,0.069-0.182,0.106-0.307,0.113c-0.124,0.008-0.244,0.011-0.36,0.011c-0.321,0-0.715,0.134-1.182,0.402
		c-0.467,0.268-1.212,0.801-2.233,1.6l-0.306-0.248c0.715-0.963,1.247-1.761,1.598-2.394H232.78c0,2.063-0.605,3.096-1.816,3.096
		c-0.365,0-0.632-0.076-0.799-0.228c-0.168-0.151-0.252-0.33-0.252-0.537c0-0.205,0.183-0.488,0.547-0.846
		c0.569-0.536,0.964-1.011,1.183-1.424c0.219-0.412,0.386-1.018,0.503-1.816h0.481c0.059,0.413,0.103,0.799,0.132,1.156H241.973z
		 M240.878,68.504v3.487c0,0.771-0.062,1.304-0.187,1.599c-0.124,0.297-0.316,0.54-0.58,0.733c-0.262,0.192-0.656,0.382-1.182,0.567
		s-0.856,0.278-0.995,0.278c-0.14,0-0.229-0.097-0.273-0.288c-0.088-0.345-0.201-0.62-0.34-0.825
		c-0.139-0.207-0.391-0.4-0.755-0.578c-0.365-0.18-0.905-0.372-1.619-0.578v-0.475c1.298,0.22,2.178,0.33,2.637,0.33
		c0.46,0,0.784-0.059,0.974-0.176c0.189-0.116,0.285-0.389,0.285-0.815v-3.26h-7.484c-0.395,0-0.701,0.048-0.92,0.144l-0.394-0.846
		c0.307,0.069,0.671,0.104,1.094,0.104h7.704c0-0.839-0.03-1.521-0.088-2.043c0.539,0.11,1.051,0.248,1.532,0.412
		c1.021-0.797,1.699-1.431,2.035-1.898h-7.682c-0.395,0-0.7,0.049-0.919,0.146l-0.395-0.888c0.307,0.069,0.671,0.103,1.095,0.103
		h8.206l0.789-0.639c0.087-0.083,0.167-0.124,0.24-0.124c0.131,0,0.547,0.268,1.247,0.804c0.701,0.537,1.051,0.897,1.051,1.084
		c0,0.186-0.219,0.251-0.656,0.196c-0.146-0.014-0.277-0.021-0.395-0.021c-0.321,0-0.748,0.103-1.28,0.309
		c-0.532,0.207-1.448,0.627-2.746,1.26v1.3h5.056l1.116-1.444c0.145-0.193,0.27-0.29,0.371-0.29c0.176,0,0.628,0.328,1.357,0.98
		c0.729,0.654,1.095,1.042,1.095,1.166s-0.146,0.187-0.438,0.187H240.878z M233,56.081c1.094,0.563,1.889,1.018,2.385,1.361
		s0.816,0.633,0.963,0.866c0.146,0.234,0.219,0.51,0.219,0.826s-0.124,0.629-0.371,0.939c-0.249,0.309-0.505,0.464-0.767,0.464
		c-0.264,0-0.467-0.2-0.613-0.599c-0.32-0.894-0.591-1.517-0.81-1.867c-0.219-0.352-0.649-0.878-1.291-1.579L233,56.081z
		 M238.099,55.461c1.036,0.702,1.809,1.324,2.32,1.868c0.51,0.543,0.766,1.083,0.766,1.62c0,0.302-0.165,0.65-0.493,1.042
		c-0.327,0.392-0.62,0.588-0.875,0.588c-0.256,0-0.427-0.241-0.514-0.723c-0.161-1.045-0.358-1.863-0.591-2.455
		c-0.234-0.592-0.555-1.143-0.963-1.651L238.099,55.461z" fill="#2E3192"></path>
</g>
</svg>
